<?xml version="1.0" encoding="us-ascii" standalone="no"?><svg xmlns="http://www.w3.org/2000/svg" xmlns:xlink="http://www.w3.org/1999/xlink" contentStyleType="text/css" height="278px" preserveAspectRatio="none" style="width:896px;height:278px;background:#FFFFFF;" version="1.1" viewBox="0 0 896 278" width="896px" zoomAndPan="magnify"><defs/><g><!--class BadRequestException--><g id="elem_BadRequestException"><rect codeLine="2" fill="#F1F1F1" height="48" id="BadRequestException" rx="2.5" ry="2.5" style="stroke:#181818;stroke-width:0.5;" width="180" x="277.5" y="115"/><ellipse cx="292.5" cy="131" fill="#ADD1B2" rx="11" ry="11" style="stroke:#181818;stroke-width:1.0;"/><path d="M295.4731,136.6431 Q294.8921,136.9419 294.2529,137.0913 Q293.6138,137.2407 292.9082,137.2407 Q290.4014,137.2407 289.0815,135.5889 Q287.7617,133.937 287.7617,130.8159 Q287.7617,127.6865 289.0815,126.0347 Q290.4014,124.3828 292.9082,124.3828 Q293.6138,124.3828 294.2612,124.5322 Q294.9087,124.6816 295.4731,124.9805 L295.4731,127.7031 Q294.8423,127.1221 294.2488,126.8523 Q293.6553,126.5825 293.0244,126.5825 Q291.6797,126.5825 290.9949,127.6492 Q290.3101,128.7158 290.3101,130.8159 Q290.3101,132.9077 290.9949,133.9744 Q291.6797,135.041 293.0244,135.041 Q293.6553,135.041 294.2488,134.7712 Q294.8423,134.5015 295.4731,133.9204 Z " fill="#000000"/><text fill="#000000" font-family="sans-serif" font-size="14" lengthAdjust="spacing" textLength="148" x="306.5" y="136.291">BadRequestException</text><line style="stroke:#181818;stroke-width:0.5;" x1="278.5" x2="456.5" y1="147" y2="147"/><line style="stroke:#181818;stroke-width:0.5;" x1="278.5" x2="456.5" y1="155" y2="155"/></g><!--class APIException--><g id="elem_APIException"><rect fill="#F1F1F1" height="48" id="APIException" rx="2.5" ry="2.5" style="stroke:#181818;stroke-width:0.5;" width="122" x="528.5" y="7"/><ellipse cx="543.5" cy="23" fill="#ADD1B2" rx="11" ry="11" style="stroke:#181818;stroke-width:1.0;"/><path d="M546.4731,28.6431 Q545.8921,28.9419 545.2529,29.0913 Q544.6138,29.2407 543.9082,29.2407 Q541.4014,29.2407 540.0815,27.5889 Q538.7617,25.937 538.7617,22.8159 Q538.7617,19.6865 540.0815,18.0347 Q541.4014,16.3828 543.9082,16.3828 Q544.6138,16.3828 545.2612,16.5322 Q545.9087,16.6816 546.4731,16.9805 L546.4731,19.7031 Q545.8423,19.1221 545.2488,18.8523 Q544.6553,18.5825 544.0244,18.5825 Q542.6797,18.5825 541.9949,19.6492 Q541.3101,20.7158 541.3101,22.8159 Q541.3101,24.9077 541.9949,25.9744 Q542.6797,27.041 544.0244,27.041 Q544.6553,27.041 545.2488,26.7712 Q545.8423,26.5015 546.4731,25.9204 Z " fill="#000000"/><text fill="#000000" font-family="sans-serif" font-size="14" lengthAdjust="spacing" textLength="90" x="557.5" y="28.291">APIException</text><line style="stroke:#181818;stroke-width:0.5;" x1="529.5" x2="649.5" y1="39" y2="39"/><line style="stroke:#181818;stroke-width:0.5;" x1="529.5" x2="649.5" y1="47" y2="47"/></g><!--class UnauthorizedException--><g id="elem_UnauthorizedException"><rect codeLine="5" fill="#F1F1F1" height="48" id="UnauthorizedException" rx="2.5" ry="2.5" style="stroke:#181818;stroke-width:0.5;" width="194" x="492.5" y="115"/><ellipse cx="507.5" cy="131" fill="#ADD1B2" rx="11" ry="11" style="stroke:#181818;stroke-width:1.0;"/><path d="M510.4731,136.6431 Q509.8921,136.9419 509.2529,137.0913 Q508.6138,137.2407 507.9082,137.2407 Q505.4014,137.2407 504.0815,135.5889 Q502.7617,133.937 502.7617,130.8159 Q502.7617,127.6865 504.0815,126.0347 Q505.4014,124.3828 507.9082,124.3828 Q508.6138,124.3828 509.2612,124.5322 Q509.9087,124.6816 510.4731,124.9805 L510.4731,127.7031 Q509.8423,127.1221 509.2488,126.8523 Q508.6553,126.5825 508.0244,126.5825 Q506.6797,126.5825 505.9949,127.6492 Q505.3101,128.7158 505.3101,130.8159 Q505.3101,132.9077 505.9949,133.9744 Q506.6797,135.041 508.0244,135.041 Q508.6553,135.041 509.2488,134.7712 Q509.8423,134.5015 510.4731,133.9204 Z " fill="#000000"/><text fill="#000000" font-family="sans-serif" font-size="14" lengthAdjust="spacing" textLength="162" x="521.5" y="136.291">UnauthorizedException</text><line style="stroke:#181818;stroke-width:0.5;" x1="493.5" x2="685.5" y1="147" y2="147"/><line style="stroke:#181818;stroke-width:0.5;" x1="493.5" x2="685.5" y1="155" y2="155"/></g><!--class NotFoundException--><g id="elem_NotFoundException"><rect codeLine="8" fill="#F1F1F1" height="48" id="NotFoundException" rx="2.5" ry="2.5" style="stroke:#181818;stroke-width:0.5;" width="168" x="721.5" y="115"/><ellipse cx="736.5" cy="131" fill="#ADD1B2" rx="11" ry="11" style="stroke:#181818;stroke-width:1.0;"/><path d="M739.4731,136.6431 Q738.8921,136.9419 738.2529,137.0913 Q737.6138,137.2407 736.9082,137.2407 Q734.4014,137.2407 733.0815,135.5889 Q731.7617,133.937 731.7617,130.8159 Q731.7617,127.6865 733.0815,126.0347 Q734.4014,124.3828 736.9082,124.3828 Q737.6138,124.3828 738.2612,124.5322 Q738.9087,124.6816 739.4731,124.9805 L739.4731,127.7031 Q738.8423,127.1221 738.2488,126.8523 Q737.6553,126.5825 737.0244,126.5825 Q735.6797,126.5825 734.9949,127.6492 Q734.3101,128.7158 734.3101,130.8159 Q734.3101,132.9077 734.9949,133.9744 Q735.6797,135.041 737.0244,135.041 Q737.6553,135.041 738.2488,134.7712 Q738.8423,134.5015 739.4731,133.9204 Z " fill="#000000"/><text fill="#000000" font-family="sans-serif" font-size="14" lengthAdjust="spacing" textLength="136" x="750.5" y="136.291">NotFoundException</text><line style="stroke:#181818;stroke-width:0.5;" x1="722.5" x2="888.5" y1="147" y2="147"/><line style="stroke:#181818;stroke-width:0.5;" x1="722.5" x2="888.5" y1="155" y2="155"/></g><!--class InvalidParameterException--><g id="elem_InvalidParameterException"><rect codeLine="11" fill="#F1F1F1" height="48" id="InvalidParameterException" rx="2.5" ry="2.5" style="stroke:#181818;stroke-width:0.5;" width="215" x="7" y="223"/><ellipse cx="22" cy="239" fill="#ADD1B2" rx="11" ry="11" style="stroke:#181818;stroke-width:1.0;"/><path d="M24.9731,244.6431 Q24.3921,244.9419 23.7529,245.0913 Q23.1138,245.2407 22.4082,245.2407 Q19.9014,245.2407 18.5815,243.5889 Q17.2617,241.937 17.2617,238.8159 Q17.2617,235.6865 18.5815,234.0347 Q19.9014,232.3828 22.4082,232.3828 Q23.1138,232.3828 23.7612,232.5322 Q24.4087,232.6816 24.9731,232.9805 L24.9731,235.7031 Q24.3423,235.1221 23.7488,234.8523 Q23.1553,234.5825 22.5244,234.5825 Q21.1797,234.5825 20.4949,235.6492 Q19.8101,236.7158 19.8101,238.8159 Q19.8101,240.9077 20.4949,241.9744 Q21.1797,243.041 22.5244,243.041 Q23.1553,243.041 23.7488,242.7712 Q24.3423,242.5015 24.9731,241.9204 Z " fill="#000000"/><text fill="#000000" font-family="sans-serif" font-size="14" lengthAdjust="spacing" textLength="183" x="36" y="244.291">InvalidParameterException</text><line style="stroke:#181818;stroke-width:0.5;" x1="8" x2="221" y1="255" y2="255"/><line style="stroke:#181818;stroke-width:0.5;" x1="8" x2="221" y1="263" y2="263"/></g><!--class MissingParameterException--><g id="elem_MissingParameterException"><rect codeLine="14" fill="#F1F1F1" height="48" id="MissingParameterException" rx="2.5" ry="2.5" style="stroke:#181818;stroke-width:0.5;" width="222" x="256.5" y="223"/><ellipse cx="271.5" cy="239" fill="#ADD1B2" rx="11" ry="11" style="stroke:#181818;stroke-width:1.0;"/><path d="M274.4731,244.6431 Q273.8921,244.9419 273.2529,245.0913 Q272.6138,245.2407 271.9082,245.2407 Q269.4014,245.2407 268.0815,243.5889 Q266.7617,241.937 266.7617,238.8159 Q266.7617,235.6865 268.0815,234.0347 Q269.4014,232.3828 271.9082,232.3828 Q272.6138,232.3828 273.2612,232.5322 Q273.9087,232.6816 274.4731,232.9805 L274.4731,235.7031 Q273.8423,235.1221 273.2488,234.8523 Q272.6553,234.5825 272.0244,234.5825 Q270.6797,234.5825 269.9949,235.6492 Q269.3101,236.7158 269.3101,238.8159 Q269.3101,240.9077 269.9949,241.9744 Q270.6797,243.041 272.0244,243.041 Q272.6553,243.041 273.2488,242.7712 Q273.8423,242.5015 274.4731,241.9204 Z " fill="#000000"/><text fill="#000000" font-family="sans-serif" font-size="14" lengthAdjust="spacing" textLength="190" x="285.5" y="244.291">MissingParameterException</text><line style="stroke:#181818;stroke-width:0.5;" x1="257.5" x2="477.5" y1="255" y2="255"/><line style="stroke:#181818;stroke-width:0.5;" x1="257.5" x2="477.5" y1="263" y2="263"/></g><!--class UnsupportedMethodException--><g id="elem_UnsupportedMethodException"><rect codeLine="17" fill="#F1F1F1" height="48" id="UnsupportedMethodException" rx="2.5" ry="2.5" style="stroke:#181818;stroke-width:0.5;" width="242" x="513.5" y="223"/><ellipse cx="528.5" cy="239" fill="#ADD1B2" rx="11" ry="11" style="stroke:#181818;stroke-width:1.0;"/><path d="M531.4731,244.6431 Q530.8921,244.9419 530.2529,245.0913 Q529.6138,245.2407 528.9082,245.2407 Q526.4014,245.2407 525.0815,243.5889 Q523.7617,241.937 523.7617,238.8159 Q523.7617,235.6865 525.0815,234.0347 Q526.4014,232.3828 528.9082,232.3828 Q529.6138,232.3828 530.2612,232.5322 Q530.9087,232.6816 531.4731,232.9805 L531.4731,235.7031 Q530.8423,235.1221 530.2488,234.8523 Q529.6553,234.5825 529.0244,234.5825 Q527.6797,234.5825 526.9949,235.6492 Q526.3101,236.7158 526.3101,238.8159 Q526.3101,240.9077 526.9949,241.9744 Q527.6797,243.041 529.0244,243.041 Q529.6553,243.041 530.2488,242.7712 Q530.8423,242.5015 531.4731,241.9204 Z " fill="#000000"/><text fill="#000000" font-family="sans-serif" font-size="14" lengthAdjust="spacing" textLength="210" x="542.5" y="244.291">UnsupportedMethodException</text><line style="stroke:#181818;stroke-width:0.5;" x1="514.5" x2="754.5" y1="255" y2="255"/><line style="stroke:#181818;stroke-width:0.5;" x1="514.5" x2="754.5" y1="263" y2="263"/></g><!--reverse link APIException to BadRequestException--><g id="link_APIException_BadRequestException"><path d="M524.266,63.1445 C487.356,80.7645 453.24,97.06 416.37,114.67 " fill="none" id="APIException-backto-BadRequestException" style="stroke:#181818;stroke-width:1.0;"/><polygon fill="none" points="540.51,55.39,521.6812,57.7299,526.8508,68.5592,540.51,55.39" style="stroke:#181818;stroke-width:1.0;"/></g><!--reverse link APIException to UnauthorizedException--><g id="link_APIException_UnauthorizedException"><path d="M589.5,73.26 C589.5,90.94 589.5,97.13 589.5,114.79 " fill="none" id="APIException-backto-UnauthorizedException" style="stroke:#181818;stroke-width:1.0;"/><polygon fill="none" points="589.5,55.26,583.5,73.26,595.5,73.26,589.5,55.26" style="stroke:#181818;stroke-width:1.0;"/></g><!--reverse link APIException to NotFoundException--><g id="link_APIException_NotFoundException"><path d="M653.3287,63.3208 C689.2287,80.9408 722.08,97.06 757.95,114.67 " fill="none" id="APIException-backto-NotFoundException" style="stroke:#181818;stroke-width:1.0;"/><polygon fill="none" points="637.17,55.39,650.6851,68.707,655.9723,57.9346,637.17,55.39" style="stroke:#181818;stroke-width:1.0;"/></g><!--reverse link BadRequestException to InvalidParameterException--><g id="link_BadRequestException_InvalidParameterException"><path d="M295.0585,170.3464 C253.0085,187.9664 212.21,205.06 170.19,222.67 " fill="none" id="BadRequestException-backto-InvalidParameterException" style="stroke:#181818;stroke-width:1.0;"/><polygon fill="none" points="311.66,163.39,292.7397,164.8126,297.3774,175.8802,311.66,163.39" style="stroke:#181818;stroke-width:1.0;"/></g><!--reverse link BadRequestException to MissingParameterException--><g id="link_BadRequestException_MissingParameterException"><path d="M367.5,181.26 C367.5,198.94 367.5,205.13 367.5,222.79 " fill="none" id="BadRequestException-backto-MissingParameterException" style="stroke:#181818;stroke-width:1.0;"/><polygon fill="none" points="367.5,163.26,361.5,181.26,373.5,181.26,367.5,163.26" style="stroke:#181818;stroke-width:1.0;"/></g><!--reverse link BadRequestException to UnsupportedMethodException--><g id="link_BadRequestException_UnsupportedMethodException"><path d="M443.1502,170.0308 C487.5402,187.6508 531.38,205.06 575.73,222.67 " fill="none" id="BadRequestException-backto-UnsupportedMethodException" style="stroke:#181818;stroke-width:1.0;"/><polygon fill="none" points="426.42,163.39,440.9366,175.6076,445.3638,164.4541,426.42,163.39" style="stroke:#181818;stroke-width:1.0;"/></g><!--SRC=[dSz12i9038NX_PnYhgAWq4Mb23r0c0GDr6ISPAHKlBkb6mLTLBU1x-Sb3M0Mju17kbOotus9ihDAfD59qEAcQrx7UtY4a1RJ2rG_Q-69SBqwgE-roW-YaHiCZ1qKk91J-PJVrhy5MZPZEVqVwCLgpbgSiANvPLnTU080]--></g></svg>