<?xml version="1.0" encoding="us-ascii" standalone="no"?><svg xmlns="http://www.w3.org/2000/svg" xmlns:xlink="http://www.w3.org/1999/xlink" contentStyleType="text/css" height="278px" preserveAspectRatio="none" style="width:952px;height:278px;background:#FFFFFF;" version="1.1" viewBox="0 0 952 278" width="952px" zoomAndPan="magnify"><defs/><g><!--class InitializationException--><g id="elem_InitializationException"><rect codeLine="2" fill="#F1F1F1" height="48" id="InitializationException" rx="2.5" ry="2.5" style="stroke:#181818;stroke-width:0.5;" width="185" x="285" y="115"/><ellipse cx="300" cy="131" fill="#ADD1B2" rx="11" ry="11" style="stroke:#181818;stroke-width:1.0;"/><path d="M302.9731,136.6431 Q302.3921,136.9419 301.7529,137.0913 Q301.1138,137.2407 300.4082,137.2407 Q297.9014,137.2407 296.5815,135.5889 Q295.2617,133.937 295.2617,130.8159 Q295.2617,127.6865 296.5815,126.0347 Q297.9014,124.3828 300.4082,124.3828 Q301.1138,124.3828 301.7612,124.5322 Q302.4087,124.6816 302.9731,124.9805 L302.9731,127.7031 Q302.3423,127.1221 301.7488,126.8523 Q301.1553,126.5825 300.5244,126.5825 Q299.1797,126.5825 298.4949,127.6492 Q297.8101,128.7158 297.8101,130.8159 Q297.8101,132.9077 298.4949,133.9744 Q299.1797,135.041 300.5244,135.041 Q301.1553,135.041 301.7488,134.7712 Q302.3423,134.5015 302.9731,133.9204 Z " fill="#000000"/><text fill="#000000" font-family="sans-serif" font-size="14" lengthAdjust="spacing" textLength="153" x="314" y="136.291">InitializationException</text><line style="stroke:#181818;stroke-width:0.5;" x1="286" x2="469" y1="147" y2="147"/><line style="stroke:#181818;stroke-width:0.5;" x1="286" x2="469" y1="155" y2="155"/></g><!--class ApplicationException--><g id="elem_ApplicationException"><rect fill="#F1F1F1" height="48" id="ApplicationException" rx="2.5" ry="2.5" style="stroke:#181818;stroke-width:0.5;" width="178" x="513.5" y="7"/><ellipse cx="528.5" cy="23" fill="#ADD1B2" rx="11" ry="11" style="stroke:#181818;stroke-width:1.0;"/><path d="M531.4731,28.6431 Q530.8921,28.9419 530.2529,29.0913 Q529.6138,29.2407 528.9082,29.2407 Q526.4014,29.2407 525.0815,27.5889 Q523.7617,25.937 523.7617,22.8159 Q523.7617,19.6865 525.0815,18.0347 Q526.4014,16.3828 528.9082,16.3828 Q529.6138,16.3828 530.2612,16.5322 Q530.9087,16.6816 531.4731,16.9805 L531.4731,19.7031 Q530.8423,19.1221 530.2488,18.8523 Q529.6553,18.5825 529.0244,18.5825 Q527.6797,18.5825 526.9949,19.6492 Q526.3101,20.7158 526.3101,22.8159 Q526.3101,24.9077 526.9949,25.9744 Q527.6797,27.041 529.0244,27.041 Q529.6553,27.041 530.2488,26.7712 Q530.8423,26.5015 531.4731,25.9204 Z " fill="#000000"/><text fill="#000000" font-family="sans-serif" font-size="14" lengthAdjust="spacing" textLength="146" x="542.5" y="28.291">ApplicationException</text><line style="stroke:#181818;stroke-width:0.5;" x1="514.5" x2="690.5" y1="39" y2="39"/><line style="stroke:#181818;stroke-width:0.5;" x1="514.5" x2="690.5" y1="47" y2="47"/></g><!--class ConfigurationException--><g id="elem_ConfigurationException"><rect codeLine="5" fill="#F1F1F1" height="48" id="ConfigurationException" rx="2.5" ry="2.5" style="stroke:#181818;stroke-width:0.5;" width="196" x="504.5" y="115"/><ellipse cx="519.5" cy="131" fill="#ADD1B2" rx="11" ry="11" style="stroke:#181818;stroke-width:1.0;"/><path d="M522.4731,136.6431 Q521.8921,136.9419 521.2529,137.0913 Q520.6138,137.2407 519.9082,137.2407 Q517.4014,137.2407 516.0815,135.5889 Q514.7617,133.937 514.7617,130.8159 Q514.7617,127.6865 516.0815,126.0347 Q517.4014,124.3828 519.9082,124.3828 Q520.6138,124.3828 521.2612,124.5322 Q521.9087,124.6816 522.4731,124.9805 L522.4731,127.7031 Q521.8423,127.1221 521.2488,126.8523 Q520.6553,126.5825 520.0244,126.5825 Q518.6797,126.5825 517.9949,127.6492 Q517.3101,128.7158 517.3101,130.8159 Q517.3101,132.9077 517.9949,133.9744 Q518.6797,135.041 520.0244,135.041 Q520.6553,135.041 521.2488,134.7712 Q521.8423,134.5015 522.4731,133.9204 Z " fill="#000000"/><text fill="#000000" font-family="sans-serif" font-size="14" lengthAdjust="spacing" textLength="164" x="533.5" y="136.291">ConfigurationException</text><line style="stroke:#181818;stroke-width:0.5;" x1="505.5" x2="699.5" y1="147" y2="147"/><line style="stroke:#181818;stroke-width:0.5;" x1="505.5" x2="699.5" y1="155" y2="155"/></g><!--class OperationFailedException--><g id="elem_OperationFailedException"><rect codeLine="8" fill="#F1F1F1" height="48" id="OperationFailedException" rx="2.5" ry="2.5" style="stroke:#181818;stroke-width:0.5;" width="210" x="735.5" y="115"/><ellipse cx="750.5" cy="131" fill="#ADD1B2" rx="11" ry="11" style="stroke:#181818;stroke-width:1.0;"/><path d="M753.4731,136.6431 Q752.8921,136.9419 752.2529,137.0913 Q751.6138,137.2407 750.9082,137.2407 Q748.4014,137.2407 747.0815,135.5889 Q745.7617,133.937 745.7617,130.8159 Q745.7617,127.6865 747.0815,126.0347 Q748.4014,124.3828 750.9082,124.3828 Q751.6138,124.3828 752.2612,124.5322 Q752.9087,124.6816 753.4731,124.9805 L753.4731,127.7031 Q752.8423,127.1221 752.2488,126.8523 Q751.6553,126.5825 751.0244,126.5825 Q749.6797,126.5825 748.9949,127.6492 Q748.3101,128.7158 748.3101,130.8159 Q748.3101,132.9077 748.9949,133.9744 Q749.6797,135.041 751.0244,135.041 Q751.6553,135.041 752.2488,134.7712 Q752.8423,134.5015 753.4731,133.9204 Z " fill="#000000"/><text fill="#000000" font-family="sans-serif" font-size="14" lengthAdjust="spacing" textLength="178" x="764.5" y="136.291">OperationFailedException</text><line style="stroke:#181818;stroke-width:0.5;" x1="736.5" x2="944.5" y1="147" y2="147"/><line style="stroke:#181818;stroke-width:0.5;" x1="736.5" x2="944.5" y1="155" y2="155"/></g><!--class MissingResourceException--><g id="elem_MissingResourceException"><rect codeLine="11" fill="#F1F1F1" height="48" id="MissingResourceException" rx="2.5" ry="2.5" style="stroke:#181818;stroke-width:0.5;" width="215" x="7" y="223"/><ellipse cx="22" cy="239" fill="#ADD1B2" rx="11" ry="11" style="stroke:#181818;stroke-width:1.0;"/><path d="M24.9731,244.6431 Q24.3921,244.9419 23.7529,245.0913 Q23.1138,245.2407 22.4082,245.2407 Q19.9014,245.2407 18.5815,243.5889 Q17.2617,241.937 17.2617,238.8159 Q17.2617,235.6865 18.5815,234.0347 Q19.9014,232.3828 22.4082,232.3828 Q23.1138,232.3828 23.7612,232.5322 Q24.4087,232.6816 24.9731,232.9805 L24.9731,235.7031 Q24.3423,235.1221 23.7488,234.8523 Q23.1553,234.5825 22.5244,234.5825 Q21.1797,234.5825 20.4949,235.6492 Q19.8101,236.7158 19.8101,238.8159 Q19.8101,240.9077 20.4949,241.9744 Q21.1797,243.041 22.5244,243.041 Q23.1553,243.041 23.7488,242.7712 Q24.3423,242.5015 24.9731,241.9204 Z " fill="#000000"/><text fill="#000000" font-family="sans-serif" font-size="14" lengthAdjust="spacing" textLength="183" x="36" y="244.291">MissingResourceException</text><line style="stroke:#181818;stroke-width:0.5;" x1="8" x2="221" y1="255" y2="255"/><line style="stroke:#181818;stroke-width:0.5;" x1="8" x2="221" y1="263" y2="263"/></g><!--class InvalidConfigurationException--><g id="elem_InvalidConfigurationException"><rect codeLine="14" fill="#F1F1F1" height="48" id="InvalidConfigurationException" rx="2.5" ry="2.5" style="stroke:#181818;stroke-width:0.5;" width="241" x="257" y="223"/><ellipse cx="272" cy="239" fill="#ADD1B2" rx="11" ry="11" style="stroke:#181818;stroke-width:1.0;"/><path d="M274.9731,244.6431 Q274.3921,244.9419 273.7529,245.0913 Q273.1138,245.2407 272.4082,245.2407 Q269.9014,245.2407 268.5815,243.5889 Q267.2617,241.937 267.2617,238.8159 Q267.2617,235.6865 268.5815,234.0347 Q269.9014,232.3828 272.4082,232.3828 Q273.1138,232.3828 273.7612,232.5322 Q274.4087,232.6816 274.9731,232.9805 L274.9731,235.7031 Q274.3423,235.1221 273.7488,234.8523 Q273.1553,234.5825 272.5244,234.5825 Q271.1797,234.5825 270.4949,235.6492 Q269.8101,236.7158 269.8101,238.8159 Q269.8101,240.9077 270.4949,241.9744 Q271.1797,243.041 272.5244,243.041 Q273.1553,243.041 273.7488,242.7712 Q274.3423,242.5015 274.9731,241.9204 Z " fill="#000000"/><text fill="#000000" font-family="sans-serif" font-size="14" lengthAdjust="spacing" textLength="209" x="286" y="244.291">InvalidConfigurationException</text><line style="stroke:#181818;stroke-width:0.5;" x1="258" x2="497" y1="255" y2="255"/><line style="stroke:#181818;stroke-width:0.5;" x1="258" x2="497" y1="263" y2="263"/></g><!--class UnsupportedFeatureException--><g id="elem_UnsupportedFeatureException"><rect codeLine="17" fill="#F1F1F1" height="48" id="UnsupportedFeatureException" rx="2.5" ry="2.5" style="stroke:#181818;stroke-width:0.5;" width="242" x="532.5" y="223"/><ellipse cx="547.5" cy="239" fill="#ADD1B2" rx="11" ry="11" style="stroke:#181818;stroke-width:1.0;"/><path d="M550.4731,244.6431 Q549.8921,244.9419 549.2529,245.0913 Q548.6138,245.2407 547.9082,245.2407 Q545.4014,245.2407 544.0815,243.5889 Q542.7617,241.937 542.7617,238.8159 Q542.7617,235.6865 544.0815,234.0347 Q545.4014,232.3828 547.9082,232.3828 Q548.6138,232.3828 549.2612,232.5322 Q549.9087,232.6816 550.4731,232.9805 L550.4731,235.7031 Q549.8423,235.1221 549.2488,234.8523 Q548.6553,234.5825 548.0244,234.5825 Q546.6797,234.5825 545.9949,235.6492 Q545.3101,236.7158 545.3101,238.8159 Q545.3101,240.9077 545.9949,241.9744 Q546.6797,243.041 548.0244,243.041 Q548.6553,243.041 549.2488,242.7712 Q549.8423,242.5015 550.4731,241.9204 Z " fill="#000000"/><text fill="#000000" font-family="sans-serif" font-size="14" lengthAdjust="spacing" textLength="210" x="561.5" y="244.291">UnsupportedFeatureException</text><line style="stroke:#181818;stroke-width:0.5;" x1="533.5" x2="773.5" y1="255" y2="255"/><line style="stroke:#181818;stroke-width:0.5;" x1="533.5" x2="773.5" y1="263" y2="263"/></g><!--reverse link ApplicationException to InitializationException--><g id="link_ApplicationException_InitializationException"><path d="M536.5566,63.0615 C499.1566,80.6815 464.4,97.06 427.03,114.67 " fill="none" id="ApplicationException-backto-InitializationException" style="stroke:#181818;stroke-width:1.0;"/><polygon fill="none" points="552.84,55.39,533.9995,57.6337,539.1138,68.4893,552.84,55.39" style="stroke:#181818;stroke-width:1.0;"/></g><!--reverse link ApplicationException to ConfigurationException--><g id="link_ApplicationException_ConfigurationException"><path d="M602.5,73.26 C602.5,90.94 602.5,97.13 602.5,114.79 " fill="none" id="ApplicationException-backto-ConfigurationException" style="stroke:#181818;stroke-width:1.0;"/><polygon fill="none" points="602.5,55.26,596.5,73.26,608.5,73.26,602.5,55.26" style="stroke:#181818;stroke-width:1.0;"/></g><!--reverse link ApplicationException to OperationFailedException--><g id="link_ApplicationException_OperationFailedException"><path d="M671.4635,62.7121 C711.0335,80.3321 748.58,97.06 788.11,114.67 " fill="none" id="ApplicationException-backto-OperationFailedException" style="stroke:#181818;stroke-width:1.0;"/><polygon fill="none" points="655.02,55.39,669.0228,68.1932,673.9041,57.2309,655.02,55.39" style="stroke:#181818;stroke-width:1.0;"/></g><!--reverse link InitializationException to MissingResourceException--><g id="link_InitializationException_MissingResourceException"><path d="M302.7649,170.1185 C259.0449,187.7385 216.07,205.06 172.39,222.67 " fill="none" id="InitializationException-backto-MissingResourceException" style="stroke:#181818;stroke-width:1.0;"/><polygon fill="none" points="319.46,163.39,300.522,164.5534,305.0077,175.6835,319.46,163.39" style="stroke:#181818;stroke-width:1.0;"/></g><!--reverse link InitializationException to InvalidConfigurationException--><g id="link_InitializationException_InvalidConfigurationException"><path d="M377.5,181.26 C377.5,198.94 377.5,205.13 377.5,222.79 " fill="none" id="InitializationException-backto-InvalidConfigurationException" style="stroke:#181818;stroke-width:1.0;"/><polygon fill="none" points="377.5,163.26,371.5,181.26,383.5,181.26,377.5,163.26" style="stroke:#181818;stroke-width:1.0;"/></g><!--reverse link InitializationException to UnsupportedFeatureException--><g id="link_InitializationException_UnsupportedFeatureException"><path d="M455.2134,169.8433 C501.0934,187.4633 546.9,205.06 592.74,222.67 " fill="none" id="InitializationException-backto-UnsupportedFeatureException" style="stroke:#181818;stroke-width:1.0;"/><polygon fill="none" points="438.41,163.39,453.0623,175.4444,457.3645,164.2421,438.41,163.39" style="stroke:#181818;stroke-width:1.0;"/></g><!--SRC=[dOz12W8n34NtFKMl8kB0B0P1y00XZKEWfA59PL2ykpfkH14TTn_otoCVCvZ5NjWPCf_0kSXcGj9xY3GvIRAuKisCByTpk8I0CxykSk2nrJ_nhT83xO0pfUM2WSrOnXrPQHNfNV1fu9EZb-EjaBvC-K6q5skgfJgbZi1RNVhF5G00]--></g></svg>