<?xml version="1.0" encoding="us-ascii" standalone="no"?><svg xmlns="http://www.w3.org/2000/svg" xmlns:xlink="http://www.w3.org/1999/xlink" contentStyleType="text/css" height="278px" preserveAspectRatio="none" style="width:931px;height:278px;background:#FFFFFF;" version="1.1" viewBox="0 0 931 278" width="931px" zoomAndPan="magnify"><defs/><g><!--class UserNotFoundException--><g id="elem_UserNotFoundException"><rect codeLine="2" fill="#F1F1F1" height="48" id="UserNotFoundException" rx="2.5" ry="2.5" style="stroke:#181818;stroke-width:0.5;" width="199" x="224.5" y="115"/><ellipse cx="239.5" cy="131" fill="#ADD1B2" rx="11" ry="11" style="stroke:#181818;stroke-width:1.0;"/><path d="M242.4731,136.6431 Q241.8921,136.9419 241.2529,137.0913 Q240.6138,137.2407 239.9082,137.2407 Q237.4014,137.2407 236.0815,135.5889 Q234.7617,133.937 234.7617,130.8159 Q234.7617,127.6865 236.0815,126.0347 Q237.4014,124.3828 239.9082,124.3828 Q240.6138,124.3828 241.2612,124.5322 Q241.9087,124.6816 242.4731,124.9805 L242.4731,127.7031 Q241.8423,127.1221 241.2488,126.8523 Q240.6553,126.5825 240.0244,126.5825 Q238.6797,126.5825 237.9949,127.6492 Q237.3101,128.7158 237.3101,130.8159 Q237.3101,132.9077 237.9949,133.9744 Q238.6797,135.041 240.0244,135.041 Q240.6553,135.041 241.2488,134.7712 Q241.8423,134.5015 242.4731,133.9204 Z " fill="#000000"/><text fill="#000000" font-family="sans-serif" font-size="14" lengthAdjust="spacing" textLength="167" x="253.5" y="136.291">UserNotFoundException</text><line style="stroke:#181818;stroke-width:0.5;" x1="225.5" x2="422.5" y1="147" y2="147"/><line style="stroke:#181818;stroke-width:0.5;" x1="225.5" x2="422.5" y1="155" y2="155"/></g><!--class AuthenticationException--><g id="elem_AuthenticationException"><rect fill="#F1F1F1" height="48" id="AuthenticationException" rx="2.5" ry="2.5" style="stroke:#181818;stroke-width:0.5;" width="201" x="471.5" y="7"/><ellipse cx="486.5" cy="23" fill="#ADD1B2" rx="11" ry="11" style="stroke:#181818;stroke-width:1.0;"/><path d="M489.4731,28.6431 Q488.8921,28.9419 488.2529,29.0913 Q487.6138,29.2407 486.9082,29.2407 Q484.4014,29.2407 483.0815,27.5889 Q481.7617,25.937 481.7617,22.8159 Q481.7617,19.6865 483.0815,18.0347 Q484.4014,16.3828 486.9082,16.3828 Q487.6138,16.3828 488.2612,16.5322 Q488.9087,16.6816 489.4731,16.9805 L489.4731,19.7031 Q488.8423,19.1221 488.2488,18.8523 Q487.6553,18.5825 487.0244,18.5825 Q485.6797,18.5825 484.9949,19.6492 Q484.3101,20.7158 484.3101,22.8159 Q484.3101,24.9077 484.9949,25.9744 Q485.6797,27.041 487.0244,27.041 Q487.6553,27.041 488.2488,26.7712 Q488.8423,26.5015 489.4731,25.9204 Z " fill="#000000"/><text fill="#000000" font-family="sans-serif" font-size="14" lengthAdjust="spacing" textLength="169" x="500.5" y="28.291">AuthenticationException</text><line style="stroke:#181818;stroke-width:0.5;" x1="472.5" x2="671.5" y1="39" y2="39"/><line style="stroke:#181818;stroke-width:0.5;" x1="472.5" x2="671.5" y1="47" y2="47"/></g><!--class PasswordIncorrectException--><g id="elem_PasswordIncorrectException"><rect codeLine="5" fill="#F1F1F1" height="48" id="PasswordIncorrectException" rx="2.5" ry="2.5" style="stroke:#181818;stroke-width:0.5;" width="226" x="459" y="115"/><ellipse cx="474" cy="131" fill="#ADD1B2" rx="11" ry="11" style="stroke:#181818;stroke-width:1.0;"/><path d="M476.9731,136.6431 Q476.3921,136.9419 475.7529,137.0913 Q475.1138,137.2407 474.4082,137.2407 Q471.9014,137.2407 470.5815,135.5889 Q469.2617,133.937 469.2617,130.8159 Q469.2617,127.6865 470.5815,126.0347 Q471.9014,124.3828 474.4082,124.3828 Q475.1138,124.3828 475.7612,124.5322 Q476.4087,124.6816 476.9731,124.9805 L476.9731,127.7031 Q476.3423,127.1221 475.7488,126.8523 Q475.1553,126.5825 474.5244,126.5825 Q473.1797,126.5825 472.4949,127.6492 Q471.8101,128.7158 471.8101,130.8159 Q471.8101,132.9077 472.4949,133.9744 Q473.1797,135.041 474.5244,135.041 Q475.1553,135.041 475.7488,134.7712 Q476.3423,134.5015 476.9731,133.9204 Z " fill="#000000"/><text fill="#000000" font-family="sans-serif" font-size="14" lengthAdjust="spacing" textLength="194" x="488" y="136.291">PasswordIncorrectException</text><line style="stroke:#181818;stroke-width:0.5;" x1="460" x2="684" y1="147" y2="147"/><line style="stroke:#181818;stroke-width:0.5;" x1="460" x2="684" y1="155" y2="155"/></g><!--class AccountLockedException--><g id="elem_AccountLockedException"><rect codeLine="8" fill="#F1F1F1" height="48" id="AccountLockedException" rx="2.5" ry="2.5" style="stroke:#181818;stroke-width:0.5;" width="204" x="720" y="115"/><ellipse cx="735" cy="131" fill="#ADD1B2" rx="11" ry="11" style="stroke:#181818;stroke-width:1.0;"/><path d="M737.9731,136.6431 Q737.3921,136.9419 736.7529,137.0913 Q736.1138,137.2407 735.4082,137.2407 Q732.9014,137.2407 731.5815,135.5889 Q730.2617,133.937 730.2617,130.8159 Q730.2617,127.6865 731.5815,126.0347 Q732.9014,124.3828 735.4082,124.3828 Q736.1138,124.3828 736.7612,124.5322 Q737.4087,124.6816 737.9731,124.9805 L737.9731,127.7031 Q737.3423,127.1221 736.7488,126.8523 Q736.1553,126.5825 735.5244,126.5825 Q734.1797,126.5825 733.4949,127.6492 Q732.8101,128.7158 732.8101,130.8159 Q732.8101,132.9077 733.4949,133.9744 Q734.1797,135.041 735.5244,135.041 Q736.1553,135.041 736.7488,134.7712 Q737.3423,134.5015 737.9731,133.9204 Z " fill="#000000"/><text fill="#000000" font-family="sans-serif" font-size="14" lengthAdjust="spacing" textLength="172" x="749" y="136.291">AccountLockedException</text><line style="stroke:#181818;stroke-width:0.5;" x1="721" x2="923" y1="147" y2="147"/><line style="stroke:#181818;stroke-width:0.5;" x1="721" x2="923" y1="155" y2="155"/></g><!--class UserDisabledException--><g id="elem_UserDisabledException"><rect codeLine="11" fill="#F1F1F1" height="48" id="UserDisabledException" rx="2.5" ry="2.5" style="stroke:#181818;stroke-width:0.5;" width="190" x="7" y="223"/><ellipse cx="22" cy="239" fill="#ADD1B2" rx="11" ry="11" style="stroke:#181818;stroke-width:1.0;"/><path d="M24.9731,244.6431 Q24.3921,244.9419 23.7529,245.0913 Q23.1138,245.2407 22.4082,245.2407 Q19.9014,245.2407 18.5815,243.5889 Q17.2617,241.937 17.2617,238.8159 Q17.2617,235.6865 18.5815,234.0347 Q19.9014,232.3828 22.4082,232.3828 Q23.1138,232.3828 23.7612,232.5322 Q24.4087,232.6816 24.9731,232.9805 L24.9731,235.7031 Q24.3423,235.1221 23.7488,234.8523 Q23.1553,234.5825 22.5244,234.5825 Q21.1797,234.5825 20.4949,235.6492 Q19.8101,236.7158 19.8101,238.8159 Q19.8101,240.9077 20.4949,241.9744 Q21.1797,243.041 22.5244,243.041 Q23.1553,243.041 23.7488,242.7712 Q24.3423,242.5015 24.9731,241.9204 Z " fill="#000000"/><text fill="#000000" font-family="sans-serif" font-size="14" lengthAdjust="spacing" textLength="158" x="36" y="244.291">UserDisabledException</text><line style="stroke:#181818;stroke-width:0.5;" x1="8" x2="196" y1="255" y2="255"/><line style="stroke:#181818;stroke-width:0.5;" x1="8" x2="196" y1="263" y2="263"/></g><!--class UserExpiredException--><g id="elem_UserExpiredException"><rect codeLine="14" fill="#F1F1F1" height="48" id="UserExpiredException" rx="2.5" ry="2.5" style="stroke:#181818;stroke-width:0.5;" width="184" x="232" y="223"/><ellipse cx="247" cy="239" fill="#ADD1B2" rx="11" ry="11" style="stroke:#181818;stroke-width:1.0;"/><path d="M249.9731,244.6431 Q249.3921,244.9419 248.7529,245.0913 Q248.1138,245.2407 247.4082,245.2407 Q244.9014,245.2407 243.5815,243.5889 Q242.2617,241.937 242.2617,238.8159 Q242.2617,235.6865 243.5815,234.0347 Q244.9014,232.3828 247.4082,232.3828 Q248.1138,232.3828 248.7612,232.5322 Q249.4087,232.6816 249.9731,232.9805 L249.9731,235.7031 Q249.3423,235.1221 248.7488,234.8523 Q248.1553,234.5825 247.5244,234.5825 Q246.1797,234.5825 245.4949,235.6492 Q244.8101,236.7158 244.8101,238.8159 Q244.8101,240.9077 245.4949,241.9744 Q246.1797,243.041 247.5244,243.041 Q248.1553,243.041 248.7488,242.7712 Q249.3423,242.5015 249.9731,241.9204 Z " fill="#000000"/><text fill="#000000" font-family="sans-serif" font-size="14" lengthAdjust="spacing" textLength="152" x="261" y="244.291">UserExpiredException</text><line style="stroke:#181818;stroke-width:0.5;" x1="233" x2="415" y1="255" y2="255"/><line style="stroke:#181818;stroke-width:0.5;" x1="233" x2="415" y1="263" y2="263"/></g><!--class UserNotVerifiedException--><g id="elem_UserNotVerifiedException"><rect codeLine="17" fill="#F1F1F1" height="48" id="UserNotVerifiedException" rx="2.5" ry="2.5" style="stroke:#181818;stroke-width:0.5;" width="208" x="451" y="223"/><ellipse cx="466" cy="239" fill="#ADD1B2" rx="11" ry="11" style="stroke:#181818;stroke-width:1.0;"/><path d="M468.9731,244.6431 Q468.3921,244.9419 467.7529,245.0913 Q467.1138,245.2407 466.4082,245.2407 Q463.9014,245.2407 462.5815,243.5889 Q461.2617,241.937 461.2617,238.8159 Q461.2617,235.6865 462.5815,234.0347 Q463.9014,232.3828 466.4082,232.3828 Q467.1138,232.3828 467.7612,232.5322 Q468.4087,232.6816 468.9731,232.9805 L468.9731,235.7031 Q468.3423,235.1221 467.7488,234.8523 Q467.1553,234.5825 466.5244,234.5825 Q465.1797,234.5825 464.4949,235.6492 Q463.8101,236.7158 463.8101,238.8159 Q463.8101,240.9077 464.4949,241.9744 Q465.1797,243.041 466.5244,243.041 Q467.1553,243.041 467.7488,242.7712 Q468.3423,242.5015 468.9731,241.9204 Z " fill="#000000"/><text fill="#000000" font-family="sans-serif" font-size="14" lengthAdjust="spacing" textLength="176" x="480" y="244.291">UserNotVerifiedException</text><line style="stroke:#181818;stroke-width:0.5;" x1="452" x2="658" y1="255" y2="255"/><line style="stroke:#181818;stroke-width:0.5;" x1="452" x2="658" y1="263" y2="263"/></g><!--reverse link AuthenticationException to UserNotFoundException--><g id="link_AuthenticationException_UserNotFoundException"><path d="M500.7181,62.4636 C459.4881,80.0836 419.78,97.06 378.59,114.67 " fill="none" id="AuthenticationException-backto-UserNotFoundException" style="stroke:#181818;stroke-width:1.0;"/><polygon fill="none" points="517.27,55.39,498.3603,56.9463,503.076,67.9809,517.27,55.39" style="stroke:#181818;stroke-width:1.0;"/></g><!--reverse link AuthenticationException to PasswordIncorrectException--><g id="link_AuthenticationException_PasswordIncorrectException"><path d="M572,73.26 C572,90.94 572,97.13 572,114.79 " fill="none" id="AuthenticationException-backto-PasswordIncorrectException" style="stroke:#181818;stroke-width:1.0;"/><polygon fill="none" points="572,55.26,566,73.26,578,73.26,572,55.26" style="stroke:#181818;stroke-width:1.0;"/></g><!--reverse link AuthenticationException to AccountLockedException--><g id="link_AuthenticationException_AccountLockedException"><path d="M643.7421,62.416 C685.3021,80.036 725.45,97.06 766.97,114.67 " fill="none" id="AuthenticationException-backto-AccountLockedException" style="stroke:#181818;stroke-width:1.0;"/><polygon fill="none" points="627.17,55.39,641.4001,67.94,646.0841,56.892,627.17,55.39" style="stroke:#181818;stroke-width:1.0;"/></g><!--reverse link UserNotFoundException to UserDisabledException--><g id="link_UserNotFoundException_UserDisabledException"><path d="M258.766,171.1445 C221.856,188.7645 187.74,205.06 150.87,222.67 " fill="none" id="UserNotFoundException-backto-UserDisabledException" style="stroke:#181818;stroke-width:1.0;"/><polygon fill="none" points="275.01,163.39,256.1812,165.7299,261.3508,176.5592,275.01,163.39" style="stroke:#181818;stroke-width:1.0;"/></g><!--reverse link UserNotFoundException to UserExpiredException--><g id="link_UserNotFoundException_UserExpiredException"><path d="M324,181.26 C324,198.94 324,205.13 324,222.79 " fill="none" id="UserNotFoundException-backto-UserExpiredException" style="stroke:#181818;stroke-width:1.0;"/><polygon fill="none" points="324,163.26,318,181.26,330,181.26,324,163.26" style="stroke:#181818;stroke-width:1.0;"/></g><!--reverse link UserNotFoundException to UserNotVerifiedException--><g id="link_UserNotFoundException_UserNotVerifiedException"><path d="M391.3399,170.8968 C429.7399,188.5168 465.78,205.06 504.15,222.67 " fill="none" id="UserNotFoundException-backto-UserNotVerifiedException" style="stroke:#181818;stroke-width:1.0;"/><polygon fill="none" points="374.98,163.39,388.8377,176.3501,393.8422,165.4435,374.98,163.39" style="stroke:#181818;stroke-width:1.0;"/></g><!--SRC=[dO_12i9034Jl-nNxAmKh229UzBvcKneiIKbIN13_tQqNGNfnBtF8P1upC2MpU37Ka_XU5ivz0PoTX2CMHyuMkyL7P2T8w_dhFyCh1FW0pbKUeld08Ae8taJf06e3FmhSiQt7EcH7bcxJ5c1xva-yBpDfSxe-N55fe3y9Rm00]--></g></svg>