<?xml version="1.0" encoding="us-ascii" standalone="no"?><svg xmlns="http://www.w3.org/2000/svg" xmlns:xlink="http://www.w3.org/1999/xlink" contentStyleType="text/css" height="278px" preserveAspectRatio="none" style="width:970px;height:278px;background:#FFFFFF;" version="1.1" viewBox="0 0 970 278" width="970px" zoomAndPan="magnify"><defs/><g><!--class VisaIssuesException--><g id="elem_VisaIssuesException"><rect codeLine="4" fill="#F1F1F1" height="48" id="VisaIssuesException" rx="2.5" ry="2.5" style="stroke:#181818;stroke-width:0.5;" width="170" x="287.5" y="115"/><ellipse cx="302.5" cy="131" fill="#ADD1B2" rx="11" ry="11" style="stroke:#181818;stroke-width:1.0;"/><path d="M305.4731,136.6431 Q304.8921,136.9419 304.2529,137.0913 Q303.6138,137.2407 302.9082,137.2407 Q300.4014,137.2407 299.0815,135.5889 Q297.7617,133.937 297.7617,130.8159 Q297.7617,127.6865 299.0815,126.0347 Q300.4014,124.3828 302.9082,124.3828 Q303.6138,124.3828 304.2612,124.5322 Q304.9087,124.6816 305.4731,124.9805 L305.4731,127.7031 Q304.8423,127.1221 304.2488,126.8523 Q303.6553,126.5825 303.0244,126.5825 Q301.6797,126.5825 300.9949,127.6492 Q300.3101,128.7158 300.3101,130.8159 Q300.3101,132.9077 300.9949,133.9744 Q301.6797,135.041 303.0244,135.041 Q303.6553,135.041 304.2488,134.7712 Q304.8423,134.5015 305.4731,133.9204 Z " fill="#000000"/><text fill="#000000" font-family="sans-serif" font-size="14" lengthAdjust="spacing" textLength="138" x="316.5" y="136.291">VisaIssuesException</text><line style="stroke:#181818;stroke-width:0.5;" x1="288.5" x2="456.5" y1="147" y2="147"/><line style="stroke:#181818;stroke-width:0.5;" x1="288.5" x2="456.5" y1="155" y2="155"/></g><!--class CannotTravelException--><g id="elem_CannotTravelException"><rect fill="#F1F1F1" height="48" id="CannotTravelException" rx="2.5" ry="2.5" style="stroke:#181818;stroke-width:0.5;" width="192" x="508.5" y="7"/><ellipse cx="523.5" cy="23" fill="#ADD1B2" rx="11" ry="11" style="stroke:#181818;stroke-width:1.0;"/><path d="M526.4731,28.6431 Q525.8921,28.9419 525.2529,29.0913 Q524.6138,29.2407 523.9082,29.2407 Q521.4014,29.2407 520.0815,27.5889 Q518.7617,25.937 518.7617,22.8159 Q518.7617,19.6865 520.0815,18.0347 Q521.4014,16.3828 523.9082,16.3828 Q524.6138,16.3828 525.2612,16.5322 Q525.9087,16.6816 526.4731,16.9805 L526.4731,19.7031 Q525.8423,19.1221 525.2488,18.8523 Q524.6553,18.5825 524.0244,18.5825 Q522.6797,18.5825 521.9949,19.6492 Q521.3101,20.7158 521.3101,22.8159 Q521.3101,24.9077 521.9949,25.9744 Q522.6797,27.041 524.0244,27.041 Q524.6553,27.041 525.2488,26.7712 Q525.8423,26.5015 526.4731,25.9204 Z " fill="#000000"/><text fill="#000000" font-family="sans-serif" font-size="14" lengthAdjust="spacing" textLength="160" x="537.5" y="28.291">CannotTravelException</text><line style="stroke:#181818;stroke-width:0.5;" x1="509.5" x2="699.5" y1="39" y2="39"/><line style="stroke:#181818;stroke-width:0.5;" x1="509.5" x2="699.5" y1="47" y2="47"/></g><!--class FlightCancellationException--><g id="elem_FlightCancellationException"><rect codeLine="7" fill="#F1F1F1" height="48" id="FlightCancellationException" rx="2.5" ry="2.5" style="stroke:#181818;stroke-width:0.5;" width="224" x="492.5" y="115"/><ellipse cx="507.5" cy="131" fill="#ADD1B2" rx="11" ry="11" style="stroke:#181818;stroke-width:1.0;"/><path d="M510.4731,136.6431 Q509.8921,136.9419 509.2529,137.0913 Q508.6138,137.2407 507.9082,137.2407 Q505.4014,137.2407 504.0815,135.5889 Q502.7617,133.937 502.7617,130.8159 Q502.7617,127.6865 504.0815,126.0347 Q505.4014,124.3828 507.9082,124.3828 Q508.6138,124.3828 509.2612,124.5322 Q509.9087,124.6816 510.4731,124.9805 L510.4731,127.7031 Q509.8423,127.1221 509.2488,126.8523 Q508.6553,126.5825 508.0244,126.5825 Q506.6797,126.5825 505.9949,127.6492 Q505.3101,128.7158 505.3101,130.8159 Q505.3101,132.9077 505.9949,133.9744 Q506.6797,135.041 508.0244,135.041 Q508.6553,135.041 509.2488,134.7712 Q509.8423,134.5015 510.4731,133.9204 Z " fill="#000000"/><text fill="#000000" font-family="sans-serif" font-size="14" lengthAdjust="spacing" textLength="192" x="521.5" y="136.291">FlightCancellationException</text><line style="stroke:#181818;stroke-width:0.5;" x1="493.5" x2="715.5" y1="147" y2="147"/><line style="stroke:#181818;stroke-width:0.5;" x1="493.5" x2="715.5" y1="155" y2="155"/></g><!--class PassportExpiredException--><g id="elem_PassportExpiredException"><rect codeLine="10" fill="#F1F1F1" height="48" id="PassportExpiredException" rx="2.5" ry="2.5" style="stroke:#181818;stroke-width:0.5;" width="212" x="751.5" y="115"/><ellipse cx="766.5" cy="131" fill="#ADD1B2" rx="11" ry="11" style="stroke:#181818;stroke-width:1.0;"/><path d="M769.4731,136.6431 Q768.8921,136.9419 768.2529,137.0913 Q767.6138,137.2407 766.9082,137.2407 Q764.4014,137.2407 763.0815,135.5889 Q761.7617,133.937 761.7617,130.8159 Q761.7617,127.6865 763.0815,126.0347 Q764.4014,124.3828 766.9082,124.3828 Q767.6138,124.3828 768.2612,124.5322 Q768.9087,124.6816 769.4731,124.9805 L769.4731,127.7031 Q768.8423,127.1221 768.2488,126.8523 Q767.6553,126.5825 767.0244,126.5825 Q765.6797,126.5825 764.9949,127.6492 Q764.3101,128.7158 764.3101,130.8159 Q764.3101,132.9077 764.9949,133.9744 Q765.6797,135.041 767.0244,135.041 Q767.6553,135.041 768.2488,134.7712 Q768.8423,134.5015 769.4731,133.9204 Z " fill="#000000"/><text fill="#000000" font-family="sans-serif" font-size="14" lengthAdjust="spacing" textLength="180" x="780.5" y="136.291">PassportExpiredException</text><line style="stroke:#181818;stroke-width:0.5;" x1="752.5" x2="962.5" y1="147" y2="147"/><line style="stroke:#181818;stroke-width:0.5;" x1="752.5" x2="962.5" y1="155" y2="155"/></g><!--class NoVisaAppointmentException--><g id="elem_NoVisaAppointmentException"><rect codeLine="13" fill="#F1F1F1" height="48" id="NoVisaAppointmentException" rx="2.5" ry="2.5" style="stroke:#181818;stroke-width:0.5;" width="237" x="7" y="223"/><ellipse cx="22" cy="239" fill="#ADD1B2" rx="11" ry="11" style="stroke:#181818;stroke-width:1.0;"/><path d="M24.9731,244.6431 Q24.3921,244.9419 23.7529,245.0913 Q23.1138,245.2407 22.4082,245.2407 Q19.9014,245.2407 18.5815,243.5889 Q17.2617,241.937 17.2617,238.8159 Q17.2617,235.6865 18.5815,234.0347 Q19.9014,232.3828 22.4082,232.3828 Q23.1138,232.3828 23.7612,232.5322 Q24.4087,232.6816 24.9731,232.9805 L24.9731,235.7031 Q24.3423,235.1221 23.7488,234.8523 Q23.1553,234.5825 22.5244,234.5825 Q21.1797,234.5825 20.4949,235.6492 Q19.8101,236.7158 19.8101,238.8159 Q19.8101,240.9077 20.4949,241.9744 Q21.1797,243.041 22.5244,243.041 Q23.1553,243.041 23.7488,242.7712 Q24.3423,242.5015 24.9731,241.9204 Z " fill="#000000"/><text fill="#000000" font-family="sans-serif" font-size="14" lengthAdjust="spacing" textLength="205" x="36" y="244.291">NoVisaAppointmentException</text><line style="stroke:#181818;stroke-width:0.5;" x1="8" x2="243" y1="255" y2="255"/><line style="stroke:#181818;stroke-width:0.5;" x1="8" x2="243" y1="263" y2="263"/></g><!--class VisaRejectedException--><g id="elem_VisaRejectedException"><rect codeLine="16" fill="#F1F1F1" height="48" id="VisaRejectedException" rx="2.5" ry="2.5" style="stroke:#181818;stroke-width:0.5;" width="186" x="279.5" y="223"/><ellipse cx="294.5" cy="239" fill="#ADD1B2" rx="11" ry="11" style="stroke:#181818;stroke-width:1.0;"/><path d="M297.4731,244.6431 Q296.8921,244.9419 296.2529,245.0913 Q295.6138,245.2407 294.9082,245.2407 Q292.4014,245.2407 291.0815,243.5889 Q289.7617,241.937 289.7617,238.8159 Q289.7617,235.6865 291.0815,234.0347 Q292.4014,232.3828 294.9082,232.3828 Q295.6138,232.3828 296.2612,232.5322 Q296.9087,232.6816 297.4731,232.9805 L297.4731,235.7031 Q296.8423,235.1221 296.2488,234.8523 Q295.6553,234.5825 295.0244,234.5825 Q293.6797,234.5825 292.9949,235.6492 Q292.3101,236.7158 292.3101,238.8159 Q292.3101,240.9077 292.9949,241.9744 Q293.6797,243.041 295.0244,243.041 Q295.6553,243.041 296.2488,242.7712 Q296.8423,242.5015 297.4731,241.9204 Z " fill="#000000"/><text fill="#000000" font-family="sans-serif" font-size="14" lengthAdjust="spacing" textLength="154" x="308.5" y="244.291">VisaRejectedException</text><line style="stroke:#181818;stroke-width:0.5;" x1="280.5" x2="464.5" y1="255" y2="255"/><line style="stroke:#181818;stroke-width:0.5;" x1="280.5" x2="464.5" y1="263" y2="263"/></g><!--class VisaExpiredException--><g id="elem_VisaExpiredException"><rect codeLine="19" fill="#F1F1F1" height="48" id="VisaExpiredException" rx="2.5" ry="2.5" style="stroke:#181818;stroke-width:0.5;" width="181" x="500" y="223"/><ellipse cx="515" cy="239" fill="#ADD1B2" rx="11" ry="11" style="stroke:#181818;stroke-width:1.0;"/><path d="M517.9731,244.6431 Q517.3921,244.9419 516.7529,245.0913 Q516.1138,245.2407 515.4082,245.2407 Q512.9014,245.2407 511.5815,243.5889 Q510.2617,241.937 510.2617,238.8159 Q510.2617,235.6865 511.5815,234.0347 Q512.9014,232.3828 515.4082,232.3828 Q516.1138,232.3828 516.7612,232.5322 Q517.4087,232.6816 517.9731,232.9805 L517.9731,235.7031 Q517.3423,235.1221 516.7488,234.8523 Q516.1553,234.5825 515.5244,234.5825 Q514.1797,234.5825 513.4949,235.6492 Q512.8101,236.7158 512.8101,238.8159 Q512.8101,240.9077 513.4949,241.9744 Q514.1797,243.041 515.5244,243.041 Q516.1553,243.041 516.7488,242.7712 Q517.3423,242.5015 517.9731,241.9204 Z " fill="#000000"/><text fill="#000000" font-family="sans-serif" font-size="14" lengthAdjust="spacing" textLength="149" x="529" y="244.291">VisaExpiredException</text><line style="stroke:#181818;stroke-width:0.5;" x1="501" x2="680" y1="255" y2="255"/><line style="stroke:#181818;stroke-width:0.5;" x1="501" x2="680" y1="263" y2="263"/></g><!--reverse link CannotTravelException to VisaIssuesException--><g id="link_CannotTravelException_VisaIssuesException"><path d="M536.9283,62.8711 C498.3683,80.4911 462.1,97.06 423.57,114.67 " fill="none" id="CannotTravelException-backto-VisaIssuesException" style="stroke:#181818;stroke-width:1.0;"/><polygon fill="none" points="553.3,55.39,534.4346,57.4138,539.422,68.3283,553.3,55.39" style="stroke:#181818;stroke-width:1.0;"/></g><!--reverse link CannotTravelException to FlightCancellationException--><g id="link_CannotTravelException_FlightCancellationException"><path d="M604.5,73.26 C604.5,90.94 604.5,97.13 604.5,114.79 " fill="none" id="CannotTravelException-backto-FlightCancellationException" style="stroke:#181818;stroke-width:1.0;"/><polygon fill="none" points="604.5,55.26,598.5,73.26,610.5,73.26,604.5,55.26" style="stroke:#181818;stroke-width:1.0;"/></g><!--reverse link CannotTravelException to PassportExpiredException--><g id="link_CannotTravelException_PassportExpiredException"><path d="M676.9415,62.3464 C718.9915,79.9664 759.79,97.06 801.81,114.67 " fill="none" id="CannotTravelException-backto-PassportExpiredException" style="stroke:#181818;stroke-width:1.0;"/><polygon fill="none" points="660.34,55.39,674.6226,67.8802,679.2603,56.8126,660.34,55.39" style="stroke:#181818;stroke-width:1.0;"/></g><!--reverse link VisaIssuesException to NoVisaAppointmentException--><g id="link_VisaIssuesException_NoVisaAppointmentException"><path d="M301.4487,170.4883 C260.3887,188.1083 220.9,205.06 179.87,222.67 " fill="none" id="VisaIssuesException-backto-NoVisaAppointmentException" style="stroke:#181818;stroke-width:1.0;"/><polygon fill="none" points="317.99,163.39,299.0826,164.9746,303.8148,176.0021,317.99,163.39" style="stroke:#181818;stroke-width:1.0;"/></g><!--reverse link VisaIssuesException to VisaRejectedException--><g id="link_VisaIssuesException_VisaRejectedException"><path d="M372.5,181.26 C372.5,198.94 372.5,205.13 372.5,222.79 " fill="none" id="VisaIssuesException-backto-VisaRejectedException" style="stroke:#181818;stroke-width:1.0;"/><polygon fill="none" points="372.5,163.26,366.5,181.26,378.5,181.26,372.5,163.26" style="stroke:#181818;stroke-width:1.0;"/></g><!--reverse link VisaIssuesException to VisaExpiredException--><g id="link_VisaIssuesException_VisaExpiredException"><path d="M436.798,171.2607 C473.038,188.8807 506.3,205.06 542.51,222.67 " fill="none" id="VisaIssuesException-backto-VisaExpiredException" style="stroke:#181818;stroke-width:1.0;"/><polygon fill="none" points="420.61,163.39,434.1745,176.6567,439.4216,165.8647,420.61,163.39" style="stroke:#181818;stroke-width:1.0;"/></g><!--SRC=[dO_12i9034Jl-nMzUTBUlObKy28YuZriGxkocmsRL1R4VxSLHC4Mf9T0c9d7pA9LPLcN9NiWxO9VsHXAwq5aMJje4WHZpEilBavWBzAXLDaYgujKO5QaMeej44Kz9xYX_wXtytY7TzurhVOsYzx3eCw07Fl3CMcLsIMiPn0ESLYnOOwED23fBsDivXTXa4zuHQjZ1Vu8JvQVoZu1]--></g></svg>