<?xml version="1.0" encoding="us-ascii" standalone="no"?><svg xmlns="http://www.w3.org/2000/svg" xmlns:xlink="http://www.w3.org/1999/xlink" contentStyleType="text/css" height="278px" preserveAspectRatio="none" style="width:865px;height:278px;background:#FFFFFF;" version="1.1" viewBox="0 0 865 278" width="865px" zoomAndPan="magnify"><defs/><g><!--class FeelingSickException--><g id="elem_FeelingSickException"><rect codeLine="2" fill="#F1F1F1" height="48" id="FeelingSickException" rx="2.5" ry="2.5" style="stroke:#181818;stroke-width:0.5;" width="177" x="214" y="115"/><ellipse cx="229" cy="131" fill="#ADD1B2" rx="11" ry="11" style="stroke:#181818;stroke-width:1.0;"/><path d="M231.9731,136.6431 Q231.3921,136.9419 230.7529,137.0913 Q230.1138,137.2407 229.4082,137.2407 Q226.9014,137.2407 225.5815,135.5889 Q224.2617,133.937 224.2617,130.8159 Q224.2617,127.6865 225.5815,126.0347 Q226.9014,124.3828 229.4082,124.3828 Q230.1138,124.3828 230.7612,124.5322 Q231.4087,124.6816 231.9731,124.9805 L231.9731,127.7031 Q231.3423,127.1221 230.7488,126.8523 Q230.1553,126.5825 229.5244,126.5825 Q228.1797,126.5825 227.4949,127.6492 Q226.8101,128.7158 226.8101,130.8159 Q226.8101,132.9077 227.4949,133.9744 Q228.1797,135.041 229.5244,135.041 Q230.1553,135.041 230.7488,134.7712 Q231.3423,134.5015 231.9731,133.9204 Z " fill="#000000"/><text fill="#000000" font-family="sans-serif" font-size="14" lengthAdjust="spacing" textLength="145" x="243" y="136.291">FeelingSickException</text><line style="stroke:#181818;stroke-width:0.5;" x1="215" x2="390" y1="147" y2="147"/><line style="stroke:#181818;stroke-width:0.5;" x1="215" x2="390" y1="155" y2="155"/></g><!--class CannotStudyException--><g id="elem_CannotStudyException"><rect fill="#F1F1F1" height="48" id="CannotStudyException" rx="2.5" ry="2.5" style="stroke:#181818;stroke-width:0.5;" width="188" x="418.5" y="7"/><ellipse cx="433.5" cy="23" fill="#ADD1B2" rx="11" ry="11" style="stroke:#181818;stroke-width:1.0;"/><path d="M436.4731,28.6431 Q435.8921,28.9419 435.2529,29.0913 Q434.6138,29.2407 433.9082,29.2407 Q431.4014,29.2407 430.0815,27.5889 Q428.7617,25.937 428.7617,22.8159 Q428.7617,19.6865 430.0815,18.0347 Q431.4014,16.3828 433.9082,16.3828 Q434.6138,16.3828 435.2612,16.5322 Q435.9087,16.6816 436.4731,16.9805 L436.4731,19.7031 Q435.8423,19.1221 435.2488,18.8523 Q434.6553,18.5825 434.0244,18.5825 Q432.6797,18.5825 431.9949,19.6492 Q431.3101,20.7158 431.3101,22.8159 Q431.3101,24.9077 431.9949,25.9744 Q432.6797,27.041 434.0244,27.041 Q434.6553,27.041 435.2488,26.7712 Q435.8423,26.5015 436.4731,25.9204 Z " fill="#000000"/><text fill="#000000" font-family="sans-serif" font-size="14" lengthAdjust="spacing" textLength="156" x="447.5" y="28.291">CannotStudyException</text><line style="stroke:#181818;stroke-width:0.5;" x1="419.5" x2="605.5" y1="39" y2="39"/><line style="stroke:#181818;stroke-width:0.5;" x1="419.5" x2="605.5" y1="47" y2="47"/></g><!--class UnfocusedException--><g id="elem_UnfocusedException"><rect codeLine="4" fill="#F1F1F1" height="48" id="UnfocusedException" rx="2.5" ry="2.5" style="stroke:#181818;stroke-width:0.5;" width="173" x="426" y="115"/><ellipse cx="441" cy="131" fill="#ADD1B2" rx="11" ry="11" style="stroke:#181818;stroke-width:1.0;"/><path d="M443.9731,136.6431 Q443.3921,136.9419 442.7529,137.0913 Q442.1138,137.2407 441.4082,137.2407 Q438.9014,137.2407 437.5815,135.5889 Q436.2617,133.937 436.2617,130.8159 Q436.2617,127.6865 437.5815,126.0347 Q438.9014,124.3828 441.4082,124.3828 Q442.1138,124.3828 442.7612,124.5322 Q443.4087,124.6816 443.9731,124.9805 L443.9731,127.7031 Q443.3423,127.1221 442.7488,126.8523 Q442.1553,126.5825 441.5244,126.5825 Q440.1797,126.5825 439.4949,127.6492 Q438.8101,128.7158 438.8101,130.8159 Q438.8101,132.9077 439.4949,133.9744 Q440.1797,135.041 441.5244,135.041 Q442.1553,135.041 442.7488,134.7712 Q443.3423,134.5015 443.9731,133.9204 Z " fill="#000000"/><text fill="#000000" font-family="sans-serif" font-size="14" lengthAdjust="spacing" textLength="141" x="455" y="136.291">UnfocusedException</text><line style="stroke:#181818;stroke-width:0.5;" x1="427" x2="598" y1="147" y2="147"/><line style="stroke:#181818;stroke-width:0.5;" x1="427" x2="598" y1="155" y2="155"/></g><!--class BetterThingsToDoException--><g id="elem_BetterThingsToDoException"><rect codeLine="6" fill="#F1F1F1" height="48" id="BetterThingsToDoException" rx="2.5" ry="2.5" style="stroke:#181818;stroke-width:0.5;" width="224" x="634.5" y="115"/><ellipse cx="649.5" cy="131" fill="#ADD1B2" rx="11" ry="11" style="stroke:#181818;stroke-width:1.0;"/><path d="M652.4731,136.6431 Q651.8921,136.9419 651.2529,137.0913 Q650.6138,137.2407 649.9082,137.2407 Q647.4014,137.2407 646.0815,135.5889 Q644.7617,133.937 644.7617,130.8159 Q644.7617,127.6865 646.0815,126.0347 Q647.4014,124.3828 649.9082,124.3828 Q650.6138,124.3828 651.2612,124.5322 Q651.9087,124.6816 652.4731,124.9805 L652.4731,127.7031 Q651.8423,127.1221 651.2488,126.8523 Q650.6553,126.5825 650.0244,126.5825 Q648.6797,126.5825 647.9949,127.6492 Q647.3101,128.7158 647.3101,130.8159 Q647.3101,132.9077 647.9949,133.9744 Q648.6797,135.041 650.0244,135.041 Q650.6553,135.041 651.2488,134.7712 Q651.8423,134.5015 652.4731,133.9204 Z " fill="#000000"/><text fill="#000000" font-family="sans-serif" font-size="14" lengthAdjust="spacing" textLength="192" x="663.5" y="136.291">BetterThingsToDoException</text><line style="stroke:#181818;stroke-width:0.5;" x1="635.5" x2="857.5" y1="147" y2="147"/><line style="stroke:#181818;stroke-width:0.5;" x1="635.5" x2="857.5" y1="155" y2="155"/></g><!--class RunnyNoseException--><g id="elem_RunnyNoseException"><rect codeLine="8" fill="#F1F1F1" height="48" id="RunnyNoseException" rx="2.5" ry="2.5" style="stroke:#181818;stroke-width:0.5;" width="177" x="7" y="223"/><ellipse cx="22" cy="239" fill="#ADD1B2" rx="11" ry="11" style="stroke:#181818;stroke-width:1.0;"/><path d="M24.9731,244.6431 Q24.3921,244.9419 23.7529,245.0913 Q23.1138,245.2407 22.4082,245.2407 Q19.9014,245.2407 18.5815,243.5889 Q17.2617,241.937 17.2617,238.8159 Q17.2617,235.6865 18.5815,234.0347 Q19.9014,232.3828 22.4082,232.3828 Q23.1138,232.3828 23.7612,232.5322 Q24.4087,232.6816 24.9731,232.9805 L24.9731,235.7031 Q24.3423,235.1221 23.7488,234.8523 Q23.1553,234.5825 22.5244,234.5825 Q21.1797,234.5825 20.4949,235.6492 Q19.8101,236.7158 19.8101,238.8159 Q19.8101,240.9077 20.4949,241.9744 Q21.1797,243.041 22.5244,243.041 Q23.1553,243.041 23.7488,242.7712 Q24.3423,242.5015 24.9731,241.9204 Z " fill="#000000"/><text fill="#000000" font-family="sans-serif" font-size="14" lengthAdjust="spacing" textLength="145" x="36" y="244.291">RunnyNoseException</text><line style="stroke:#181818;stroke-width:0.5;" x1="8" x2="183" y1="255" y2="255"/><line style="stroke:#181818;stroke-width:0.5;" x1="8" x2="183" y1="263" y2="263"/></g><!--class HeadacheException--><g id="elem_HeadacheException"><rect codeLine="10" fill="#F1F1F1" height="48" id="HeadacheException" rx="2.5" ry="2.5" style="stroke:#181818;stroke-width:0.5;" width="167" x="219" y="223"/><ellipse cx="234" cy="239" fill="#ADD1B2" rx="11" ry="11" style="stroke:#181818;stroke-width:1.0;"/><path d="M236.9731,244.6431 Q236.3921,244.9419 235.7529,245.0913 Q235.1138,245.2407 234.4082,245.2407 Q231.9014,245.2407 230.5815,243.5889 Q229.2617,241.937 229.2617,238.8159 Q229.2617,235.6865 230.5815,234.0347 Q231.9014,232.3828 234.4082,232.3828 Q235.1138,232.3828 235.7612,232.5322 Q236.4087,232.6816 236.9731,232.9805 L236.9731,235.7031 Q236.3423,235.1221 235.7488,234.8523 Q235.1553,234.5825 234.5244,234.5825 Q233.1797,234.5825 232.4949,235.6492 Q231.8101,236.7158 231.8101,238.8159 Q231.8101,240.9077 232.4949,241.9744 Q233.1797,243.041 234.5244,243.041 Q235.1553,243.041 235.7488,242.7712 Q236.3423,242.5015 236.9731,241.9204 Z " fill="#000000"/><text fill="#000000" font-family="sans-serif" font-size="14" lengthAdjust="spacing" textLength="135" x="248" y="244.291">HeadacheException</text><line style="stroke:#181818;stroke-width:0.5;" x1="220" x2="385" y1="255" y2="255"/><line style="stroke:#181818;stroke-width:0.5;" x1="220" x2="385" y1="263" y2="263"/></g><!--class FeverException--><g id="elem_FeverException"><rect codeLine="12" fill="#F1F1F1" height="48" id="FeverException" rx="2.5" ry="2.5" style="stroke:#181818;stroke-width:0.5;" width="137" x="421" y="223"/><ellipse cx="436" cy="239" fill="#ADD1B2" rx="11" ry="11" style="stroke:#181818;stroke-width:1.0;"/><path d="M438.9731,244.6431 Q438.3921,244.9419 437.7529,245.0913 Q437.1138,245.2407 436.4082,245.2407 Q433.9014,245.2407 432.5815,243.5889 Q431.2617,241.937 431.2617,238.8159 Q431.2617,235.6865 432.5815,234.0347 Q433.9014,232.3828 436.4082,232.3828 Q437.1138,232.3828 437.7612,232.5322 Q438.4087,232.6816 438.9731,232.9805 L438.9731,235.7031 Q438.3423,235.1221 437.7488,234.8523 Q437.1553,234.5825 436.5244,234.5825 Q435.1797,234.5825 434.4949,235.6492 Q433.8101,236.7158 433.8101,238.8159 Q433.8101,240.9077 434.4949,241.9744 Q435.1797,243.041 436.5244,243.041 Q437.1553,243.041 437.7488,242.7712 Q438.3423,242.5015 438.9731,241.9204 Z " fill="#000000"/><text fill="#000000" font-family="sans-serif" font-size="14" lengthAdjust="spacing" textLength="105" x="450" y="244.291">FeverException</text><line style="stroke:#181818;stroke-width:0.5;" x1="422" x2="557" y1="255" y2="255"/><line style="stroke:#181818;stroke-width:0.5;" x1="422" x2="557" y1="263" y2="263"/></g><!--reverse link CannotStudyException to FeelingSickException--><g id="link_CannotStudyException_FeelingSickException"><path d="M450.0817,63.5024 C415.1817,81.1224 383.61,97.06 348.73,114.67 " fill="none" id="CannotStudyException-backto-FeelingSickException" style="stroke:#181818;stroke-width:1.0;"/><polygon fill="none" points="466.15,55.39,447.3776,58.1463,452.7859,68.8585,466.15,55.39" style="stroke:#181818;stroke-width:1.0;"/></g><!--reverse link CannotStudyException to UnfocusedException--><g id="link_CannotStudyException_UnfocusedException"><path d="M512.5,73.26 C512.5,90.94 512.5,97.13 512.5,114.79 " fill="none" id="CannotStudyException-backto-UnfocusedException" style="stroke:#181818;stroke-width:1.0;"/><polygon fill="none" points="512.5,55.26,506.5,73.26,518.5,73.26,512.5,55.26" style="stroke:#181818;stroke-width:1.0;"/></g><!--reverse link CannotStudyException to BetterThingsToDoException--><g id="link_CannotStudyException_BetterThingsToDoException"><path d="M580.5364,62.8169 C619.4364,80.4369 656.13,97.06 694.99,114.67 " fill="none" id="CannotStudyException-backto-BetterThingsToDoException" style="stroke:#181818;stroke-width:1.0;"/><polygon fill="none" points="564.14,55.39,578.0608,68.2823,583.012,57.3514,564.14,55.39" style="stroke:#181818;stroke-width:1.0;"/></g><!--reverse link FeelingSickException to RunnyNoseException--><g id="link_FeelingSickException_RunnyNoseException"><path d="M240.7983,171.5941 C206.3883,189.2141 175.45,205.06 141.07,222.67 " fill="none" id="FeelingSickException-backto-RunnyNoseException" style="stroke:#181818;stroke-width:1.0;"/><polygon fill="none" points="256.82,163.39,238.0637,166.2535,243.533,176.9346,256.82,163.39" style="stroke:#181818;stroke-width:1.0;"/></g><!--reverse link FeelingSickException to HeadacheException--><g id="link_FeelingSickException_HeadacheException"><path d="M302.5,181.26 C302.5,198.94 302.5,205.13 302.5,222.79 " fill="none" id="FeelingSickException-backto-HeadacheException" style="stroke:#181818;stroke-width:1.0;"/><polygon fill="none" points="302.5,163.26,296.5,181.26,308.5,181.26,302.5,163.26" style="stroke:#181818;stroke-width:1.0;"/></g><!--reverse link FeelingSickException to FeverException--><g id="link_FeelingSickException_FeverException"><path d="M359.1996,172.1356 C390.2696,189.7456 417.11,204.97 448.24,222.61 " fill="none" id="FeelingSickException-backto-FeverException" style="stroke:#181818;stroke-width:1.0;"/><polygon fill="none" points="343.54,163.26,356.2411,177.3555,362.1581,166.9158,343.54,163.26" style="stroke:#181818;stroke-width:1.0;"/></g><!--SRC=[bS-n3e9040JGdg-uRq4WLXO27t3P6-K2sJNi7e4G_brZGw7DrPCtaw79gxe6c28_sqXZlH9U5eKTLWC7THVFBDPQ2jiPxiLHqDVs_11AYf0jIvXXxeRFidPIINR1FJ5lDr7yoh-FJdc53vw6VDXWmPoXtW00]--></g></svg>