<?xml version="1.0" encoding="us-ascii" standalone="no"?><svg xmlns="http://www.w3.org/2000/svg" xmlns:xlink="http://www.w3.org/1999/xlink" contentStyleType="text/css" height="278px" preserveAspectRatio="none" style="width:1001px;height:278px;background:#FFFFFF;" version="1.1" viewBox="0 0 1001 278" width="1001px" zoomAndPan="magnify"><defs/><g><!--class ConnectionFailedException--><g id="elem_ConnectionFailedException"><rect codeLine="4" fill="#F1F1F1" height="48" id="ConnectionFailedException" rx="2.5" ry="2.5" style="stroke:#181818;stroke-width:0.5;" width="220" x="280.5" y="115"/><ellipse cx="295.5" cy="131" fill="#ADD1B2" rx="11" ry="11" style="stroke:#181818;stroke-width:1.0;"/><path d="M298.4731,136.6431 Q297.8921,136.9419 297.2529,137.0913 Q296.6138,137.2407 295.9082,137.2407 Q293.4014,137.2407 292.0815,135.5889 Q290.7617,133.937 290.7617,130.8159 Q290.7617,127.6865 292.0815,126.0347 Q293.4014,124.3828 295.9082,124.3828 Q296.6138,124.3828 297.2612,124.5322 Q297.9087,124.6816 298.4731,124.9805 L298.4731,127.7031 Q297.8423,127.1221 297.2488,126.8523 Q296.6553,126.5825 296.0244,126.5825 Q294.6797,126.5825 293.9949,127.6492 Q293.3101,128.7158 293.3101,130.8159 Q293.3101,132.9077 293.9949,133.9744 Q294.6797,135.041 296.0244,135.041 Q296.6553,135.041 297.2488,134.7712 Q297.8423,134.5015 298.4731,133.9204 Z " fill="#000000"/><text fill="#000000" font-family="sans-serif" font-size="14" lengthAdjust="spacing" textLength="188" x="309.5" y="136.291">ConnectionFailedException</text><line style="stroke:#181818;stroke-width:0.5;" x1="281.5" x2="499.5" y1="147" y2="147"/><line style="stroke:#181818;stroke-width:0.5;" x1="281.5" x2="499.5" y1="155" y2="155"/></g><!--class DatabaseException--><g id="elem_DatabaseException"><rect fill="#F1F1F1" height="48" id="DatabaseException" rx="2.5" ry="2.5" style="stroke:#181818;stroke-width:0.5;" width="163" x="545" y="7"/><ellipse cx="560" cy="23" fill="#ADD1B2" rx="11" ry="11" style="stroke:#181818;stroke-width:1.0;"/><path d="M562.9731,28.6431 Q562.3921,28.9419 561.7529,29.0913 Q561.1138,29.2407 560.4082,29.2407 Q557.9014,29.2407 556.5815,27.5889 Q555.2617,25.937 555.2617,22.8159 Q555.2617,19.6865 556.5815,18.0347 Q557.9014,16.3828 560.4082,16.3828 Q561.1138,16.3828 561.7612,16.5322 Q562.4087,16.6816 562.9731,16.9805 L562.9731,19.7031 Q562.3423,19.1221 561.7488,18.8523 Q561.1553,18.5825 560.5244,18.5825 Q559.1797,18.5825 558.4949,19.6492 Q557.8101,20.7158 557.8101,22.8159 Q557.8101,24.9077 558.4949,25.9744 Q559.1797,27.041 560.5244,27.041 Q561.1553,27.041 561.7488,26.7712 Q562.3423,26.5015 562.9731,25.9204 Z " fill="#000000"/><text fill="#000000" font-family="sans-serif" font-size="14" lengthAdjust="spacing" textLength="131" x="574" y="28.291">DatabaseException</text><line style="stroke:#181818;stroke-width:0.5;" x1="546" x2="707" y1="39" y2="39"/><line style="stroke:#181818;stroke-width:0.5;" x1="546" x2="707" y1="47" y2="47"/></g><!--class QueryFailedException--><g id="elem_QueryFailedException"><rect codeLine="7" fill="#F1F1F1" height="48" id="QueryFailedException" rx="2.5" ry="2.5" style="stroke:#181818;stroke-width:0.5;" width="182" x="535.5" y="115"/><ellipse cx="550.5" cy="131" fill="#ADD1B2" rx="11" ry="11" style="stroke:#181818;stroke-width:1.0;"/><path d="M553.4731,136.6431 Q552.8921,136.9419 552.2529,137.0913 Q551.6138,137.2407 550.9082,137.2407 Q548.4014,137.2407 547.0815,135.5889 Q545.7617,133.937 545.7617,130.8159 Q545.7617,127.6865 547.0815,126.0347 Q548.4014,124.3828 550.9082,124.3828 Q551.6138,124.3828 552.2612,124.5322 Q552.9087,124.6816 553.4731,124.9805 L553.4731,127.7031 Q552.8423,127.1221 552.2488,126.8523 Q551.6553,126.5825 551.0244,126.5825 Q549.6797,126.5825 548.9949,127.6492 Q548.3101,128.7158 548.3101,130.8159 Q548.3101,132.9077 548.9949,133.9744 Q549.6797,135.041 551.0244,135.041 Q551.6553,135.041 552.2488,134.7712 Q552.8423,134.5015 553.4731,133.9204 Z " fill="#000000"/><text fill="#000000" font-family="sans-serif" font-size="14" lengthAdjust="spacing" textLength="150" x="564.5" y="136.291">QueryFailedException</text><line style="stroke:#181818;stroke-width:0.5;" x1="536.5" x2="716.5" y1="147" y2="147"/><line style="stroke:#181818;stroke-width:0.5;" x1="536.5" x2="716.5" y1="155" y2="155"/></g><!--class AuthenticationFailedException--><g id="elem_AuthenticationFailedException"><rect codeLine="10" fill="#F1F1F1" height="48" id="AuthenticationFailedException" rx="2.5" ry="2.5" style="stroke:#181818;stroke-width:0.5;" width="242" x="752.5" y="115"/><ellipse cx="767.5" cy="131" fill="#ADD1B2" rx="11" ry="11" style="stroke:#181818;stroke-width:1.0;"/><path d="M770.4731,136.6431 Q769.8921,136.9419 769.2529,137.0913 Q768.6138,137.2407 767.9082,137.2407 Q765.4014,137.2407 764.0815,135.5889 Q762.7617,133.937 762.7617,130.8159 Q762.7617,127.6865 764.0815,126.0347 Q765.4014,124.3828 767.9082,124.3828 Q768.6138,124.3828 769.2612,124.5322 Q769.9087,124.6816 770.4731,124.9805 L770.4731,127.7031 Q769.8423,127.1221 769.2488,126.8523 Q768.6553,126.5825 768.0244,126.5825 Q766.6797,126.5825 765.9949,127.6492 Q765.3101,128.7158 765.3101,130.8159 Q765.3101,132.9077 765.9949,133.9744 Q766.6797,135.041 768.0244,135.041 Q768.6553,135.041 769.2488,134.7712 Q769.8423,134.5015 770.4731,133.9204 Z " fill="#000000"/><text fill="#000000" font-family="sans-serif" font-size="14" lengthAdjust="spacing" textLength="210" x="781.5" y="136.291">AuthenticationFailedException</text><line style="stroke:#181818;stroke-width:0.5;" x1="753.5" x2="993.5" y1="147" y2="147"/><line style="stroke:#181818;stroke-width:0.5;" x1="753.5" x2="993.5" y1="155" y2="155"/></g><!--class DatabaseNotFoundException--><g id="elem_DatabaseNotFoundException"><rect codeLine="13" fill="#F1F1F1" height="48" id="DatabaseNotFoundException" rx="2.5" ry="2.5" style="stroke:#181818;stroke-width:0.5;" width="231" x="7" y="223"/><ellipse cx="22" cy="239" fill="#ADD1B2" rx="11" ry="11" style="stroke:#181818;stroke-width:1.0;"/><path d="M24.9731,244.6431 Q24.3921,244.9419 23.7529,245.0913 Q23.1138,245.2407 22.4082,245.2407 Q19.9014,245.2407 18.5815,243.5889 Q17.2617,241.937 17.2617,238.8159 Q17.2617,235.6865 18.5815,234.0347 Q19.9014,232.3828 22.4082,232.3828 Q23.1138,232.3828 23.7612,232.5322 Q24.4087,232.6816 24.9731,232.9805 L24.9731,235.7031 Q24.3423,235.1221 23.7488,234.8523 Q23.1553,234.5825 22.5244,234.5825 Q21.1797,234.5825 20.4949,235.6492 Q19.8101,236.7158 19.8101,238.8159 Q19.8101,240.9077 20.4949,241.9744 Q21.1797,243.041 22.5244,243.041 Q23.1553,243.041 23.7488,242.7712 Q24.3423,242.5015 24.9731,241.9204 Z " fill="#000000"/><text fill="#000000" font-family="sans-serif" font-size="14" lengthAdjust="spacing" textLength="199" x="36" y="244.291">DatabaseNotFoundException</text><line style="stroke:#181818;stroke-width:0.5;" x1="8" x2="237" y1="255" y2="255"/><line style="stroke:#181818;stroke-width:0.5;" x1="8" x2="237" y1="263" y2="263"/></g><!--class ConnectionTimeoutException--><g id="elem_ConnectionTimeoutException"><rect codeLine="16" fill="#F1F1F1" height="48" id="ConnectionTimeoutException" rx="2.5" ry="2.5" style="stroke:#181818;stroke-width:0.5;" width="236" x="272.5" y="223"/><ellipse cx="287.5" cy="239" fill="#ADD1B2" rx="11" ry="11" style="stroke:#181818;stroke-width:1.0;"/><path d="M290.4731,244.6431 Q289.8921,244.9419 289.2529,245.0913 Q288.6138,245.2407 287.9082,245.2407 Q285.4014,245.2407 284.0815,243.5889 Q282.7617,241.937 282.7617,238.8159 Q282.7617,235.6865 284.0815,234.0347 Q285.4014,232.3828 287.9082,232.3828 Q288.6138,232.3828 289.2612,232.5322 Q289.9087,232.6816 290.4731,232.9805 L290.4731,235.7031 Q289.8423,235.1221 289.2488,234.8523 Q288.6553,234.5825 288.0244,234.5825 Q286.6797,234.5825 285.9949,235.6492 Q285.3101,236.7158 285.3101,238.8159 Q285.3101,240.9077 285.9949,241.9744 Q286.6797,243.041 288.0244,243.041 Q288.6553,243.041 289.2488,242.7712 Q289.8423,242.5015 290.4731,241.9204 Z " fill="#000000"/><text fill="#000000" font-family="sans-serif" font-size="14" lengthAdjust="spacing" textLength="204" x="301.5" y="244.291">ConnectionTimeoutException</text><line style="stroke:#181818;stroke-width:0.5;" x1="273.5" x2="507.5" y1="255" y2="255"/><line style="stroke:#181818;stroke-width:0.5;" x1="273.5" x2="507.5" y1="263" y2="263"/></g><!--class ConnectionRefusedException--><g id="elem_ConnectionRefusedException"><rect codeLine="19" fill="#F1F1F1" height="48" id="ConnectionRefusedException" rx="2.5" ry="2.5" style="stroke:#181818;stroke-width:0.5;" width="234" x="543.5" y="223"/><ellipse cx="558.5" cy="239" fill="#ADD1B2" rx="11" ry="11" style="stroke:#181818;stroke-width:1.0;"/><path d="M561.4731,244.6431 Q560.8921,244.9419 560.2529,245.0913 Q559.6138,245.2407 558.9082,245.2407 Q556.4014,245.2407 555.0815,243.5889 Q553.7617,241.937 553.7617,238.8159 Q553.7617,235.6865 555.0815,234.0347 Q556.4014,232.3828 558.9082,232.3828 Q559.6138,232.3828 560.2612,232.5322 Q560.9087,232.6816 561.4731,232.9805 L561.4731,235.7031 Q560.8423,235.1221 560.2488,234.8523 Q559.6553,234.5825 559.0244,234.5825 Q557.6797,234.5825 556.9949,235.6492 Q556.3101,236.7158 556.3101,238.8159 Q556.3101,240.9077 556.9949,241.9744 Q557.6797,243.041 559.0244,243.041 Q559.6553,243.041 560.2488,242.7712 Q560.8423,242.5015 561.4731,241.9204 Z " fill="#000000"/><text fill="#000000" font-family="sans-serif" font-size="14" lengthAdjust="spacing" textLength="202" x="572.5" y="244.291">ConnectionRefusedException</text><line style="stroke:#181818;stroke-width:0.5;" x1="544.5" x2="776.5" y1="255" y2="255"/><line style="stroke:#181818;stroke-width:0.5;" x1="544.5" x2="776.5" y1="263" y2="263"/></g><!--reverse link DatabaseException to ConnectionFailedException--><g id="link_DatabaseException_ConnectionFailedException"><path d="M558.0002,62.7649 C518.7702,80.3849 481.65,97.06 442.45,114.67 " fill="none" id="DatabaseException-backto-ConnectionFailedException" style="stroke:#181818;stroke-width:1.0;"/><polygon fill="none" points="574.42,55.39,555.5419,57.2916,560.4585,68.2382,574.42,55.39" style="stroke:#181818;stroke-width:1.0;"/></g><!--reverse link DatabaseException to QueryFailedException--><g id="link_DatabaseException_QueryFailedException"><path d="M626.5,73.26 C626.5,90.94 626.5,97.13 626.5,114.79 " fill="none" id="DatabaseException-backto-QueryFailedException" style="stroke:#181818;stroke-width:1.0;"/><polygon fill="none" points="626.5,55.26,620.5,73.26,632.5,73.26,626.5,55.26" style="stroke:#181818;stroke-width:1.0;"/></g><!--reverse link DatabaseException to AuthenticationFailedException--><g id="link_DatabaseException_AuthenticationFailedException"><path d="M697.5513,62.4883 C738.6113,80.1083 778.1,97.06 819.13,114.67 " fill="none" id="DatabaseException-backto-AuthenticationFailedException" style="stroke:#181818;stroke-width:1.0;"/><polygon fill="none" points="681.01,55.39,695.1852,68.0021,699.9174,56.9746,681.01,55.39" style="stroke:#181818;stroke-width:1.0;"/></g><!--reverse link ConnectionFailedException to DatabaseNotFoundException--><g id="link_ConnectionFailedException_DatabaseNotFoundException"><path d="M314.6121,170.0115 C270.0721,187.6315 226.01,205.06 181.49,222.67 " fill="none" id="ConnectionFailedException-backto-DatabaseNotFoundException" style="stroke:#181818;stroke-width:1.0;"/><polygon fill="none" points="331.35,163.39,312.405,164.4322,316.8193,175.5908,331.35,163.39" style="stroke:#181818;stroke-width:1.0;"/></g><!--reverse link ConnectionFailedException to ConnectionTimeoutException--><g id="link_ConnectionFailedException_ConnectionTimeoutException"><path d="M390.5,181.26 C390.5,198.94 390.5,205.13 390.5,222.79 " fill="none" id="ConnectionFailedException-backto-ConnectionTimeoutException" style="stroke:#181818;stroke-width:1.0;"/><polygon fill="none" points="390.5,163.26,384.5,181.26,396.5,181.26,390.5,163.26" style="stroke:#181818;stroke-width:1.0;"/></g><!--reverse link ConnectionFailedException to ConnectionRefusedException--><g id="link_ConnectionFailedException_ConnectionRefusedException"><path d="M466.845,169.968 C511.725,187.588 556.22,205.06 601.07,222.67 " fill="none" id="ConnectionFailedException-backto-ConnectionRefusedException" style="stroke:#181818;stroke-width:1.0;"/><polygon fill="none" points="450.09,163.39,464.6523,175.553,469.0377,164.3831,450.09,163.39" style="stroke:#181818;stroke-width:1.0;"/></g><!--SRC=[fO-n2W8n44JxV4KwAqrl9-gLWk8FhCdg1PBTSDc54_7VHU4u2oqyos7cpSxEMf5IbywL12IQqy9pTZv1hVCGuT91DiQyj5qp4Ng9J0t4X67RUonFQR4Nf53j1WHEK75qRkO-u7l5xZg9NAcqI18zJ3u-c3kMXfK-uD-_UwiPGyUOaLN-xZdWMIl-lES1]--></g></svg>