<?xml version="1.0" encoding="us-ascii" standalone="no"?><svg xmlns="http://www.w3.org/2000/svg" xmlns:xlink="http://www.w3.org/1999/xlink" contentStyleType="text/css" height="278px" preserveAspectRatio="none" style="width:843px;height:278px;background:#FFFFFF;" version="1.1" viewBox="0 0 843 278" width="843px" zoomAndPan="magnify"><defs/><g><!--class FileNotFoundException--><g id="elem_FileNotFoundException"><rect codeLine="4" fill="#F1F1F1" height="48" id="FileNotFoundException" rx="2.5" ry="2.5" style="stroke:#181818;stroke-width:0.5;" width="192" x="246.5" y="115"/><ellipse cx="261.5" cy="131" fill="#ADD1B2" rx="11" ry="11" style="stroke:#181818;stroke-width:1.0;"/><path d="M264.4731,136.6431 Q263.8921,136.9419 263.2529,137.0913 Q262.6138,137.2407 261.9082,137.2407 Q259.4014,137.2407 258.0815,135.5889 Q256.7617,133.937 256.7617,130.8159 Q256.7617,127.6865 258.0815,126.0347 Q259.4014,124.3828 261.9082,124.3828 Q262.6138,124.3828 263.2612,124.5322 Q263.9087,124.6816 264.4731,124.9805 L264.4731,127.7031 Q263.8423,127.1221 263.2488,126.8523 Q262.6553,126.5825 262.0244,126.5825 Q260.6797,126.5825 259.9949,127.6492 Q259.3101,128.7158 259.3101,130.8159 Q259.3101,132.9077 259.9949,133.9744 Q260.6797,135.041 262.0244,135.041 Q262.6553,135.041 263.2488,134.7712 Q263.8423,134.5015 264.4731,133.9204 Z " fill="#000000"/><text fill="#000000" font-family="sans-serif" font-size="14" lengthAdjust="spacing" textLength="160" x="275.5" y="136.291">FileNotFoundException</text><line style="stroke:#181818;stroke-width:0.5;" x1="247.5" x2="437.5" y1="147" y2="147"/><line style="stroke:#181818;stroke-width:0.5;" x1="247.5" x2="437.5" y1="155" y2="155"/></g><!--class FileOperationException--><g id="elem_FileOperationException"><rect fill="#F1F1F1" height="48" id="FileOperationException" rx="2.5" ry="2.5" style="stroke:#181818;stroke-width:0.5;" width="193" x="462" y="7"/><ellipse cx="477" cy="23" fill="#ADD1B2" rx="11" ry="11" style="stroke:#181818;stroke-width:1.0;"/><path d="M479.9731,28.6431 Q479.3921,28.9419 478.7529,29.0913 Q478.1138,29.2407 477.4082,29.2407 Q474.9014,29.2407 473.5815,27.5889 Q472.2617,25.937 472.2617,22.8159 Q472.2617,19.6865 473.5815,18.0347 Q474.9014,16.3828 477.4082,16.3828 Q478.1138,16.3828 478.7612,16.5322 Q479.4087,16.6816 479.9731,16.9805 L479.9731,19.7031 Q479.3423,19.1221 478.7488,18.8523 Q478.1553,18.5825 477.5244,18.5825 Q476.1797,18.5825 475.4949,19.6492 Q474.8101,20.7158 474.8101,22.8159 Q474.8101,24.9077 475.4949,25.9744 Q476.1797,27.041 477.5244,27.041 Q478.1553,27.041 478.7488,26.7712 Q479.3423,26.5015 479.9731,25.9204 Z " fill="#000000"/><text fill="#000000" font-family="sans-serif" font-size="14" lengthAdjust="spacing" textLength="161" x="491" y="28.291">FileOperationException</text><line style="stroke:#181818;stroke-width:0.5;" x1="463" x2="654" y1="39" y2="39"/><line style="stroke:#181818;stroke-width:0.5;" x1="463" x2="654" y1="47" y2="47"/></g><!--class FileAccessException--><g id="elem_FileAccessException"><rect codeLine="7" fill="#F1F1F1" height="48" id="FileAccessException" rx="2.5" ry="2.5" style="stroke:#181818;stroke-width:0.5;" width="170" x="473.5" y="115"/><ellipse cx="488.5" cy="131" fill="#ADD1B2" rx="11" ry="11" style="stroke:#181818;stroke-width:1.0;"/><path d="M491.4731,136.6431 Q490.8921,136.9419 490.2529,137.0913 Q489.6138,137.2407 488.9082,137.2407 Q486.4014,137.2407 485.0815,135.5889 Q483.7617,133.937 483.7617,130.8159 Q483.7617,127.6865 485.0815,126.0347 Q486.4014,124.3828 488.9082,124.3828 Q489.6138,124.3828 490.2612,124.5322 Q490.9087,124.6816 491.4731,124.9805 L491.4731,127.7031 Q490.8423,127.1221 490.2488,126.8523 Q489.6553,126.5825 489.0244,126.5825 Q487.6797,126.5825 486.9949,127.6492 Q486.3101,128.7158 486.3101,130.8159 Q486.3101,132.9077 486.9949,133.9744 Q487.6797,135.041 489.0244,135.041 Q489.6553,135.041 490.2488,134.7712 Q490.8423,134.5015 491.4731,133.9204 Z " fill="#000000"/><text fill="#000000" font-family="sans-serif" font-size="14" lengthAdjust="spacing" textLength="138" x="502.5" y="136.291">FileAccessException</text><line style="stroke:#181818;stroke-width:0.5;" x1="474.5" x2="642.5" y1="147" y2="147"/><line style="stroke:#181818;stroke-width:0.5;" x1="474.5" x2="642.5" y1="155" y2="155"/></g><!--class FileReadException--><g id="elem_FileReadException"><rect codeLine="10" fill="#F1F1F1" height="48" id="FileReadException" rx="2.5" ry="2.5" style="stroke:#181818;stroke-width:0.5;" width="158" x="678.5" y="115"/><ellipse cx="693.5" cy="131" fill="#ADD1B2" rx="11" ry="11" style="stroke:#181818;stroke-width:1.0;"/><path d="M696.4731,136.6431 Q695.8921,136.9419 695.2529,137.0913 Q694.6138,137.2407 693.9082,137.2407 Q691.4014,137.2407 690.0815,135.5889 Q688.7617,133.937 688.7617,130.8159 Q688.7617,127.6865 690.0815,126.0347 Q691.4014,124.3828 693.9082,124.3828 Q694.6138,124.3828 695.2612,124.5322 Q695.9087,124.6816 696.4731,124.9805 L696.4731,127.7031 Q695.8423,127.1221 695.2488,126.8523 Q694.6553,126.5825 694.0244,126.5825 Q692.6797,126.5825 691.9949,127.6492 Q691.3101,128.7158 691.3101,130.8159 Q691.3101,132.9077 691.9949,133.9744 Q692.6797,135.041 694.0244,135.041 Q694.6553,135.041 695.2488,134.7712 Q695.8423,134.5015 696.4731,133.9204 Z " fill="#000000"/><text fill="#000000" font-family="sans-serif" font-size="14" lengthAdjust="spacing" textLength="126" x="707.5" y="136.291">FileReadException</text><line style="stroke:#181818;stroke-width:0.5;" x1="679.5" x2="835.5" y1="147" y2="147"/><line style="stroke:#181818;stroke-width:0.5;" x1="679.5" x2="835.5" y1="155" y2="155"/></g><!--class FileCorruptedException--><g id="elem_FileCorruptedException"><rect codeLine="13" fill="#F1F1F1" height="48" id="FileCorruptedException" rx="2.5" ry="2.5" style="stroke:#181818;stroke-width:0.5;" width="195" x="7" y="223"/><ellipse cx="22" cy="239" fill="#ADD1B2" rx="11" ry="11" style="stroke:#181818;stroke-width:1.0;"/><path d="M24.9731,244.6431 Q24.3921,244.9419 23.7529,245.0913 Q23.1138,245.2407 22.4082,245.2407 Q19.9014,245.2407 18.5815,243.5889 Q17.2617,241.937 17.2617,238.8159 Q17.2617,235.6865 18.5815,234.0347 Q19.9014,232.3828 22.4082,232.3828 Q23.1138,232.3828 23.7612,232.5322 Q24.4087,232.6816 24.9731,232.9805 L24.9731,235.7031 Q24.3423,235.1221 23.7488,234.8523 Q23.1553,234.5825 22.5244,234.5825 Q21.1797,234.5825 20.4949,235.6492 Q19.8101,236.7158 19.8101,238.8159 Q19.8101,240.9077 20.4949,241.9744 Q21.1797,243.041 22.5244,243.041 Q23.1553,243.041 23.7488,242.7712 Q24.3423,242.5015 24.9731,241.9204 Z " fill="#000000"/><text fill="#000000" font-family="sans-serif" font-size="14" lengthAdjust="spacing" textLength="163" x="36" y="244.291">FileCorruptedException</text><line style="stroke:#181818;stroke-width:0.5;" x1="8" x2="201" y1="255" y2="255"/><line style="stroke:#181818;stroke-width:0.5;" x1="8" x2="201" y1="263" y2="263"/></g><!--class FileNotReadableException--><g id="elem_FileNotReadableException"><rect codeLine="16" fill="#F1F1F1" height="48" id="FileNotReadableException" rx="2.5" ry="2.5" style="stroke:#181818;stroke-width:0.5;" width="211" x="237" y="223"/><ellipse cx="252" cy="239" fill="#ADD1B2" rx="11" ry="11" style="stroke:#181818;stroke-width:1.0;"/><path d="M254.9731,244.6431 Q254.3921,244.9419 253.7529,245.0913 Q253.1138,245.2407 252.4082,245.2407 Q249.9014,245.2407 248.5815,243.5889 Q247.2617,241.937 247.2617,238.8159 Q247.2617,235.6865 248.5815,234.0347 Q249.9014,232.3828 252.4082,232.3828 Q253.1138,232.3828 253.7612,232.5322 Q254.4087,232.6816 254.9731,232.9805 L254.9731,235.7031 Q254.3423,235.1221 253.7488,234.8523 Q253.1553,234.5825 252.5244,234.5825 Q251.1797,234.5825 250.4949,235.6492 Q249.8101,236.7158 249.8101,238.8159 Q249.8101,240.9077 250.4949,241.9744 Q251.1797,243.041 252.5244,243.041 Q253.1553,243.041 253.7488,242.7712 Q254.3423,242.5015 254.9731,241.9204 Z " fill="#000000"/><text fill="#000000" font-family="sans-serif" font-size="14" lengthAdjust="spacing" textLength="179" x="266" y="244.291">FileNotReadableException</text><line style="stroke:#181818;stroke-width:0.5;" x1="238" x2="447" y1="255" y2="255"/><line style="stroke:#181818;stroke-width:0.5;" x1="238" x2="447" y1="263" y2="263"/></g><!--class FileLockedException--><g id="elem_FileLockedException"><rect codeLine="19" fill="#F1F1F1" height="48" id="FileLockedException" rx="2.5" ry="2.5" style="stroke:#181818;stroke-width:0.5;" width="172" x="483.5" y="223"/><ellipse cx="498.5" cy="239" fill="#ADD1B2" rx="11" ry="11" style="stroke:#181818;stroke-width:1.0;"/><path d="M501.4731,244.6431 Q500.8921,244.9419 500.2529,245.0913 Q499.6138,245.2407 498.9082,245.2407 Q496.4014,245.2407 495.0815,243.5889 Q493.7617,241.937 493.7617,238.8159 Q493.7617,235.6865 495.0815,234.0347 Q496.4014,232.3828 498.9082,232.3828 Q499.6138,232.3828 500.2612,232.5322 Q500.9087,232.6816 501.4731,232.9805 L501.4731,235.7031 Q500.8423,235.1221 500.2488,234.8523 Q499.6553,234.5825 499.0244,234.5825 Q497.6797,234.5825 496.9949,235.6492 Q496.3101,236.7158 496.3101,238.8159 Q496.3101,240.9077 496.9949,241.9744 Q497.6797,243.041 499.0244,243.041 Q499.6553,243.041 500.2488,242.7712 Q500.8423,242.5015 501.4731,241.9204 Z " fill="#000000"/><text fill="#000000" font-family="sans-serif" font-size="14" lengthAdjust="spacing" textLength="140" x="512.5" y="244.291">FileLockedException</text><line style="stroke:#181818;stroke-width:0.5;" x1="484.5" x2="654.5" y1="255" y2="255"/><line style="stroke:#181818;stroke-width:0.5;" x1="484.5" x2="654.5" y1="263" y2="263"/></g><!--reverse link FileOperationException to FileNotFoundException--><g id="link_FileOperationException_FileNotFoundException"><path d="M494.6713,63.3208 C458.7713,80.9408 425.92,97.06 390.05,114.67 " fill="none" id="FileOperationException-backto-FileNotFoundException" style="stroke:#181818;stroke-width:1.0;"/><polygon fill="none" points="510.83,55.39,492.0277,57.9346,497.3149,68.707,510.83,55.39" style="stroke:#181818;stroke-width:1.0;"/></g><!--reverse link FileOperationException to FileAccessException--><g id="link_FileOperationException_FileAccessException"><path d="M558.5,73.26 C558.5,90.94 558.5,97.13 558.5,114.79 " fill="none" id="FileOperationException-backto-FileAccessException" style="stroke:#181818;stroke-width:1.0;"/><polygon fill="none" points="558.5,55.26,552.5,73.26,564.5,73.26,558.5,55.26" style="stroke:#181818;stroke-width:1.0;"/></g><!--reverse link FileOperationException to FileReadException--><g id="link_FileOperationException_FileReadException"><path d="M618.0578,63.7204 C651.1278,81.3304 680.46,96.97 713.59,114.61 " fill="none" id="FileOperationException-backto-FileReadException" style="stroke:#181818;stroke-width:1.0;"/><polygon fill="none" points="602.17,55.26,615.2377,69.0163,620.8779,58.4244,602.17,55.26" style="stroke:#181818;stroke-width:1.0;"/></g><!--reverse link FileNotFoundException to FileCorruptedException--><g id="link_FileNotFoundException_FileCorruptedException"><path d="M273.5365,170.7121 C233.9665,188.3321 196.42,205.06 156.89,222.67 " fill="none" id="FileNotFoundException-backto-FileCorruptedException" style="stroke:#181818;stroke-width:1.0;"/><polygon fill="none" points="289.98,163.39,271.0959,165.2309,275.9772,176.1932,289.98,163.39" style="stroke:#181818;stroke-width:1.0;"/></g><!--reverse link FileNotFoundException to FileNotReadableException--><g id="link_FileNotFoundException_FileNotReadableException"><path d="M342.5,181.26 C342.5,198.94 342.5,205.13 342.5,222.79 " fill="none" id="FileNotFoundException-backto-FileNotReadableException" style="stroke:#181818;stroke-width:1.0;"/><polygon fill="none" points="342.5,163.26,336.5,181.26,348.5,181.26,342.5,163.26" style="stroke:#181818;stroke-width:1.0;"/></g><!--reverse link FileNotFoundException to FileLockedException--><g id="link_FileNotFoundException_FileLockedException"><path d="M408.9092,171.0064 C446.6392,188.6264 481.83,205.06 519.53,222.67 " fill="none" id="FileNotFoundException-backto-FileLockedException" style="stroke:#181818;stroke-width:1.0;"/><polygon fill="none" points="392.6,163.39,406.3704,176.4428,411.448,165.57,392.6,163.39" style="stroke:#181818;stroke-width:1.0;"/></g><!--SRC=[KyyeAIaejjBNByX9p2ifpStHIyxFrK_EIImkrat9J4mlIipbuk82ynNSCdDI_V9BtF9Byr9SAv9J2qeoy_CKKYjAKlDI8BB-1Qb5YI1HX7GrLosoViVavDJYOd9r1wKcacspStvHKMb1IIeE0p0zXgOVg01aVM9IJYgP9lZa9sUJQ3q0]--></g></svg>