<?xml version="1.0" encoding="us-ascii" standalone="no"?><svg xmlns="http://www.w3.org/2000/svg" xmlns:xlink="http://www.w3.org/1999/xlink" contentStyleType="text/css" height="278px" preserveAspectRatio="none" style="width:936px;height:278px;background:#FFFFFF;" version="1.1" viewBox="0 0 936 278" width="936px" zoomAndPan="magnify"><defs/><g><!--class DeviceNotFoundException--><g id="elem_DeviceNotFoundException"><rect codeLine="4" fill="#F1F1F1" height="48" id="DeviceNotFoundException" rx="2.5" ry="2.5" style="stroke:#181818;stroke-width:0.5;" width="212" x="228" y="115"/><ellipse cx="243" cy="131" fill="#ADD1B2" rx="11" ry="11" style="stroke:#181818;stroke-width:1.0;"/><path d="M245.9731,136.6431 Q245.3921,136.9419 244.7529,137.0913 Q244.1138,137.2407 243.4082,137.2407 Q240.9014,137.2407 239.5815,135.5889 Q238.2617,133.937 238.2617,130.8159 Q238.2617,127.6865 239.5815,126.0347 Q240.9014,124.3828 243.4082,124.3828 Q244.1138,124.3828 244.7612,124.5322 Q245.4087,124.6816 245.9731,124.9805 L245.9731,127.7031 Q245.3423,127.1221 244.7488,126.8523 Q244.1553,126.5825 243.5244,126.5825 Q242.1797,126.5825 241.4949,127.6492 Q240.8101,128.7158 240.8101,130.8159 Q240.8101,132.9077 241.4949,133.9744 Q242.1797,135.041 243.5244,135.041 Q244.1553,135.041 244.7488,134.7712 Q245.3423,134.5015 245.9731,133.9204 Z " fill="#000000"/><text fill="#000000" font-family="sans-serif" font-size="14" lengthAdjust="spacing" textLength="180" x="257" y="136.291">DeviceNotFoundException</text><line style="stroke:#181818;stroke-width:0.5;" x1="229" x2="439" y1="147" y2="147"/><line style="stroke:#181818;stroke-width:0.5;" x1="229" x2="439" y1="155" y2="155"/></g><!--class HardwareException--><g id="elem_HardwareException"><rect fill="#F1F1F1" height="48" id="HardwareException" rx="2.5" ry="2.5" style="stroke:#181818;stroke-width:0.5;" width="166" x="487" y="7"/><ellipse cx="502" cy="23" fill="#ADD1B2" rx="11" ry="11" style="stroke:#181818;stroke-width:1.0;"/><path d="M504.9731,28.6431 Q504.3921,28.9419 503.7529,29.0913 Q503.1138,29.2407 502.4082,29.2407 Q499.9014,29.2407 498.5815,27.5889 Q497.2617,25.937 497.2617,22.8159 Q497.2617,19.6865 498.5815,18.0347 Q499.9014,16.3828 502.4082,16.3828 Q503.1138,16.3828 503.7612,16.5322 Q504.4087,16.6816 504.9731,16.9805 L504.9731,19.7031 Q504.3423,19.1221 503.7488,18.8523 Q503.1553,18.5825 502.5244,18.5825 Q501.1797,18.5825 500.4949,19.6492 Q499.8101,20.7158 499.8101,22.8159 Q499.8101,24.9077 500.4949,25.9744 Q501.1797,27.041 502.5244,27.041 Q503.1553,27.041 503.7488,26.7712 Q504.3423,26.5015 504.9731,25.9204 Z " fill="#000000"/><text fill="#000000" font-family="sans-serif" font-size="14" lengthAdjust="spacing" textLength="134" x="516" y="28.291">HardwareException</text><line style="stroke:#181818;stroke-width:0.5;" x1="488" x2="652" y1="39" y2="39"/><line style="stroke:#181818;stroke-width:0.5;" x1="488" x2="652" y1="47" y2="47"/></g><!--class DeviceFailureException--><g id="elem_DeviceFailureException"><rect codeLine="7" fill="#F1F1F1" height="48" id="DeviceFailureException" rx="2.5" ry="2.5" style="stroke:#181818;stroke-width:0.5;" width="191" x="474.5" y="115"/><ellipse cx="489.5" cy="131" fill="#ADD1B2" rx="11" ry="11" style="stroke:#181818;stroke-width:1.0;"/><path d="M492.4731,136.6431 Q491.8921,136.9419 491.2529,137.0913 Q490.6138,137.2407 489.9082,137.2407 Q487.4014,137.2407 486.0815,135.5889 Q484.7617,133.937 484.7617,130.8159 Q484.7617,127.6865 486.0815,126.0347 Q487.4014,124.3828 489.9082,124.3828 Q490.6138,124.3828 491.2612,124.5322 Q491.9087,124.6816 492.4731,124.9805 L492.4731,127.7031 Q491.8423,127.1221 491.2488,126.8523 Q490.6553,126.5825 490.0244,126.5825 Q488.6797,126.5825 487.9949,127.6492 Q487.3101,128.7158 487.3101,130.8159 Q487.3101,132.9077 487.9949,133.9744 Q488.6797,135.041 490.0244,135.041 Q490.6553,135.041 491.2488,134.7712 Q491.8423,134.5015 492.4731,133.9204 Z " fill="#000000"/><text fill="#000000" font-family="sans-serif" font-size="14" lengthAdjust="spacing" textLength="159" x="503.5" y="136.291">DeviceFailureException</text><line style="stroke:#181818;stroke-width:0.5;" x1="475.5" x2="664.5" y1="147" y2="147"/><line style="stroke:#181818;stroke-width:0.5;" x1="475.5" x2="664.5" y1="155" y2="155"/></g><!--class SensorMalfunctionException--><g id="elem_SensorMalfunctionException"><rect codeLine="10" fill="#F1F1F1" height="48" id="SensorMalfunctionException" rx="2.5" ry="2.5" style="stroke:#181818;stroke-width:0.5;" width="228" x="701" y="115"/><ellipse cx="716" cy="131" fill="#ADD1B2" rx="11" ry="11" style="stroke:#181818;stroke-width:1.0;"/><path d="M718.9731,136.6431 Q718.3921,136.9419 717.7529,137.0913 Q717.1138,137.2407 716.4082,137.2407 Q713.9014,137.2407 712.5815,135.5889 Q711.2617,133.937 711.2617,130.8159 Q711.2617,127.6865 712.5815,126.0347 Q713.9014,124.3828 716.4082,124.3828 Q717.1138,124.3828 717.7612,124.5322 Q718.4087,124.6816 718.9731,124.9805 L718.9731,127.7031 Q718.3423,127.1221 717.7488,126.8523 Q717.1553,126.5825 716.5244,126.5825 Q715.1797,126.5825 714.4949,127.6492 Q713.8101,128.7158 713.8101,130.8159 Q713.8101,132.9077 714.4949,133.9744 Q715.1797,135.041 716.5244,135.041 Q717.1553,135.041 717.7488,134.7712 Q718.3423,134.5015 718.9731,133.9204 Z " fill="#000000"/><text fill="#000000" font-family="sans-serif" font-size="14" lengthAdjust="spacing" textLength="196" x="730" y="136.291">SensorMalfunctionException</text><line style="stroke:#181818;stroke-width:0.5;" x1="702" x2="928" y1="147" y2="147"/><line style="stroke:#181818;stroke-width:0.5;" x1="702" x2="928" y1="155" y2="155"/></g><!--class BatteryLowException--><g id="elem_BatteryLowException"><rect codeLine="13" fill="#F1F1F1" height="48" id="BatteryLowException" rx="2.5" ry="2.5" style="stroke:#181818;stroke-width:0.5;" width="174" x="7" y="223"/><ellipse cx="22" cy="239" fill="#ADD1B2" rx="11" ry="11" style="stroke:#181818;stroke-width:1.0;"/><path d="M24.9731,244.6431 Q24.3921,244.9419 23.7529,245.0913 Q23.1138,245.2407 22.4082,245.2407 Q19.9014,245.2407 18.5815,243.5889 Q17.2617,241.937 17.2617,238.8159 Q17.2617,235.6865 18.5815,234.0347 Q19.9014,232.3828 22.4082,232.3828 Q23.1138,232.3828 23.7612,232.5322 Q24.4087,232.6816 24.9731,232.9805 L24.9731,235.7031 Q24.3423,235.1221 23.7488,234.8523 Q23.1553,234.5825 22.5244,234.5825 Q21.1797,234.5825 20.4949,235.6492 Q19.8101,236.7158 19.8101,238.8159 Q19.8101,240.9077 20.4949,241.9744 Q21.1797,243.041 22.5244,243.041 Q23.1553,243.041 23.7488,242.7712 Q24.3423,242.5015 24.9731,241.9204 Z " fill="#000000"/><text fill="#000000" font-family="sans-serif" font-size="14" lengthAdjust="spacing" textLength="142" x="36" y="244.291">BatteryLowException</text><line style="stroke:#181818;stroke-width:0.5;" x1="8" x2="180" y1="255" y2="255"/><line style="stroke:#181818;stroke-width:0.5;" x1="8" x2="180" y1="263" y2="263"/></g><!--class DeviceDisconnectedException--><g id="elem_DeviceDisconnectedException"><rect codeLine="16" fill="#F1F1F1" height="48" id="DeviceDisconnectedException" rx="2.5" ry="2.5" style="stroke:#181818;stroke-width:0.5;" width="236" x="216" y="223"/><ellipse cx="231" cy="239" fill="#ADD1B2" rx="11" ry="11" style="stroke:#181818;stroke-width:1.0;"/><path d="M233.9731,244.6431 Q233.3921,244.9419 232.7529,245.0913 Q232.1138,245.2407 231.4082,245.2407 Q228.9014,245.2407 227.5815,243.5889 Q226.2617,241.937 226.2617,238.8159 Q226.2617,235.6865 227.5815,234.0347 Q228.9014,232.3828 231.4082,232.3828 Q232.1138,232.3828 232.7612,232.5322 Q233.4087,232.6816 233.9731,232.9805 L233.9731,235.7031 Q233.3423,235.1221 232.7488,234.8523 Q232.1553,234.5825 231.5244,234.5825 Q230.1797,234.5825 229.4949,235.6492 Q228.8101,236.7158 228.8101,238.8159 Q228.8101,240.9077 229.4949,241.9744 Q230.1797,243.041 231.5244,243.041 Q232.1553,243.041 232.7488,242.7712 Q233.3423,242.5015 233.9731,241.9204 Z " fill="#000000"/><text fill="#000000" font-family="sans-serif" font-size="14" lengthAdjust="spacing" textLength="204" x="245" y="244.291">DeviceDisconnectedException</text><line style="stroke:#181818;stroke-width:0.5;" x1="217" x2="451" y1="255" y2="255"/><line style="stroke:#181818;stroke-width:0.5;" x1="217" x2="451" y1="263" y2="263"/></g><!--class DeviceIncompatibleException--><g id="elem_DeviceIncompatibleException"><rect codeLine="19" fill="#F1F1F1" height="48" id="DeviceIncompatibleException" rx="2.5" ry="2.5" style="stroke:#181818;stroke-width:0.5;" width="233" x="487.5" y="223"/><ellipse cx="502.5" cy="239" fill="#ADD1B2" rx="11" ry="11" style="stroke:#181818;stroke-width:1.0;"/><path d="M505.4731,244.6431 Q504.8921,244.9419 504.2529,245.0913 Q503.6138,245.2407 502.9082,245.2407 Q500.4014,245.2407 499.0815,243.5889 Q497.7617,241.937 497.7617,238.8159 Q497.7617,235.6865 499.0815,234.0347 Q500.4014,232.3828 502.9082,232.3828 Q503.6138,232.3828 504.2612,232.5322 Q504.9087,232.6816 505.4731,232.9805 L505.4731,235.7031 Q504.8423,235.1221 504.2488,234.8523 Q503.6553,234.5825 503.0244,234.5825 Q501.6797,234.5825 500.9949,235.6492 Q500.3101,236.7158 500.3101,238.8159 Q500.3101,240.9077 500.9949,241.9744 Q501.6797,243.041 503.0244,243.041 Q503.6553,243.041 504.2488,242.7712 Q504.8423,242.5015 505.4731,241.9204 Z " fill="#000000"/><text fill="#000000" font-family="sans-serif" font-size="14" lengthAdjust="spacing" textLength="201" x="516.5" y="244.291">DeviceIncompatibleException</text><line style="stroke:#181818;stroke-width:0.5;" x1="488.5" x2="719.5" y1="255" y2="255"/><line style="stroke:#181818;stroke-width:0.5;" x1="488.5" x2="719.5" y1="263" y2="263"/></g><!--reverse link HardwareException to DeviceNotFoundException--><g id="link_HardwareException_DeviceNotFoundException"><path d="M501.5002,62.7649 C462.2702,80.3849 425.15,97.06 385.95,114.67 " fill="none" id="HardwareException-backto-DeviceNotFoundException" style="stroke:#181818;stroke-width:1.0;"/><polygon fill="none" points="517.92,55.39,499.0419,57.2916,503.9585,68.2382,517.92,55.39" style="stroke:#181818;stroke-width:1.0;"/></g><!--reverse link HardwareException to DeviceFailureException--><g id="link_HardwareException_DeviceFailureException"><path d="M570,73.26 C570,90.94 570,97.13 570,114.79 " fill="none" id="HardwareException-backto-DeviceFailureException" style="stroke:#181818;stroke-width:1.0;"/><polygon fill="none" points="570,55.26,564,73.26,576,73.26,570,55.26" style="stroke:#181818;stroke-width:1.0;"/></g><!--reverse link HardwareException to SensorMalfunctionException--><g id="link_HardwareException_SensorMalfunctionException"><path d="M640.5897,62.5383 C681.3097,80.1583 720.38,97.06 761.07,114.67 " fill="none" id="HardwareException-backto-SensorMalfunctionException" style="stroke:#181818;stroke-width:1.0;"/><polygon fill="none" points="624.07,55.39,638.207,68.0449,642.9725,57.0317,624.07,55.39" style="stroke:#181818;stroke-width:1.0;"/></g><!--reverse link DeviceNotFoundException to BatteryLowException--><g id="link_DeviceNotFoundException_BatteryLowException"><path d="M264.5648,170.6629 C224.6748,188.2829 186.69,205.06 146.83,222.67 " fill="none" id="DeviceNotFoundException-backto-BatteryLowException" style="stroke:#181818;stroke-width:1.0;"/><polygon fill="none" points="281.03,163.39,262.1404,165.1745,266.9891,176.1514,281.03,163.39" style="stroke:#181818;stroke-width:1.0;"/></g><!--reverse link DeviceNotFoundException to DeviceDisconnectedException--><g id="link_DeviceNotFoundException_DeviceDisconnectedException"><path d="M334,181.26 C334,198.94 334,205.13 334,222.79 " fill="none" id="DeviceNotFoundException-backto-DeviceDisconnectedException" style="stroke:#181818;stroke-width:1.0;"/><polygon fill="none" points="334,163.26,328,181.26,340,181.26,334,163.26" style="stroke:#181818;stroke-width:1.0;"/></g><!--reverse link DeviceNotFoundException to DeviceIncompatibleException--><g id="link_DeviceNotFoundException_DeviceIncompatibleException"><path d="M410.345,169.968 C455.225,187.588 499.72,205.06 544.57,222.67 " fill="none" id="DeviceNotFoundException-backto-DeviceIncompatibleException" style="stroke:#181818;stroke-width:1.0;"/><polygon fill="none" points="393.59,163.39,408.1523,175.553,412.5377,164.3831,393.59,163.39" style="stroke:#181818;stroke-width:1.0;"/></g><!--SRC=[fP2z3i8m38JtF4Kt9kZEY4e54h3m1COn42creyIXHOXtvsS1L25HCLhdxtHtewDgIDEo31vOS-CdA4s97b8QMmU728qnvdaN5PqSqaQqbinstY45TS85TKfiKx60Q5k8z58kvle9r-1yVl_uYTqI9ubhyFlC-107yZDGfNXUITi7lvNgHQzSGc4cLB9_s2pvFd00TJjFmsnk]--></g></svg>