<?xml version="1.0" encoding="us-ascii" standalone="no"?><svg xmlns="http://www.w3.org/2000/svg" xmlns:xlink="http://www.w3.org/1999/xlink" contentStyleType="text/css" height="278px" preserveAspectRatio="none" style="width:877px;height:278px;background:#FFFFFF;" version="1.1" viewBox="0 0 877 278" width="877px" zoomAndPan="magnify"><defs/><g><!--class ConnectionTimeoutException--><g id="elem_ConnectionTimeoutException"><rect codeLine="4" fill="#F1F1F1" height="48" id="ConnectionTimeoutException" rx="2.5" ry="2.5" style="stroke:#181818;stroke-width:0.5;" width="236" x="208" y="115"/><ellipse cx="223" cy="131" fill="#ADD1B2" rx="11" ry="11" style="stroke:#181818;stroke-width:1.0;"/><path d="M225.9731,136.6431 Q225.3921,136.9419 224.7529,137.0913 Q224.1138,137.2407 223.4082,137.2407 Q220.9014,137.2407 219.5815,135.5889 Q218.2617,133.937 218.2617,130.8159 Q218.2617,127.6865 219.5815,126.0347 Q220.9014,124.3828 223.4082,124.3828 Q224.1138,124.3828 224.7612,124.5322 Q225.4087,124.6816 225.9731,124.9805 L225.9731,127.7031 Q225.3423,127.1221 224.7488,126.8523 Q224.1553,126.5825 223.5244,126.5825 Q222.1797,126.5825 221.4949,127.6492 Q220.8101,128.7158 220.8101,130.8159 Q220.8101,132.9077 221.4949,133.9744 Q222.1797,135.041 223.5244,135.041 Q224.1553,135.041 224.7488,134.7712 Q225.3423,134.5015 225.9731,133.9204 Z " fill="#000000"/><text fill="#000000" font-family="sans-serif" font-size="14" lengthAdjust="spacing" textLength="204" x="237" y="136.291">ConnectionTimeoutException</text><line style="stroke:#181818;stroke-width:0.5;" x1="209" x2="443" y1="147" y2="147"/><line style="stroke:#181818;stroke-width:0.5;" x1="209" x2="443" y1="155" y2="155"/></g><!--class NetworkException--><g id="elem_NetworkException"><rect fill="#F1F1F1" height="48" id="NetworkException" rx="2.5" ry="2.5" style="stroke:#181818;stroke-width:0.5;" width="157" x="487.5" y="7"/><ellipse cx="502.5" cy="23" fill="#ADD1B2" rx="11" ry="11" style="stroke:#181818;stroke-width:1.0;"/><path d="M505.4731,28.6431 Q504.8921,28.9419 504.2529,29.0913 Q503.6138,29.2407 502.9082,29.2407 Q500.4014,29.2407 499.0815,27.5889 Q497.7617,25.937 497.7617,22.8159 Q497.7617,19.6865 499.0815,18.0347 Q500.4014,16.3828 502.9082,16.3828 Q503.6138,16.3828 504.2612,16.5322 Q504.9087,16.6816 505.4731,16.9805 L505.4731,19.7031 Q504.8423,19.1221 504.2488,18.8523 Q503.6553,18.5825 503.0244,18.5825 Q501.6797,18.5825 500.9949,19.6492 Q500.3101,20.7158 500.3101,22.8159 Q500.3101,24.9077 500.9949,25.9744 Q501.6797,27.041 503.0244,27.041 Q503.6553,27.041 504.2488,26.7712 Q504.8423,26.5015 505.4731,25.9204 Z " fill="#000000"/><text fill="#000000" font-family="sans-serif" font-size="14" lengthAdjust="spacing" textLength="125" x="516.5" y="28.291">NetworkException</text><line style="stroke:#181818;stroke-width:0.5;" x1="488.5" x2="643.5" y1="39" y2="39"/><line style="stroke:#181818;stroke-width:0.5;" x1="488.5" x2="643.5" y1="47" y2="47"/></g><!--class NoInternetException--><g id="elem_NoInternetException"><rect codeLine="7" fill="#F1F1F1" height="48" id="NoInternetException" rx="2.5" ry="2.5" style="stroke:#181818;stroke-width:0.5;" width="173" x="479.5" y="115"/><ellipse cx="494.5" cy="131" fill="#ADD1B2" rx="11" ry="11" style="stroke:#181818;stroke-width:1.0;"/><path d="M497.4731,136.6431 Q496.8921,136.9419 496.2529,137.0913 Q495.6138,137.2407 494.9082,137.2407 Q492.4014,137.2407 491.0815,135.5889 Q489.7617,133.937 489.7617,130.8159 Q489.7617,127.6865 491.0815,126.0347 Q492.4014,124.3828 494.9082,124.3828 Q495.6138,124.3828 496.2612,124.5322 Q496.9087,124.6816 497.4731,124.9805 L497.4731,127.7031 Q496.8423,127.1221 496.2488,126.8523 Q495.6553,126.5825 495.0244,126.5825 Q493.6797,126.5825 492.9949,127.6492 Q492.3101,128.7158 492.3101,130.8159 Q492.3101,132.9077 492.9949,133.9744 Q493.6797,135.041 495.0244,135.041 Q495.6553,135.041 496.2488,134.7712 Q496.8423,134.5015 497.4731,133.9204 Z " fill="#000000"/><text fill="#000000" font-family="sans-serif" font-size="14" lengthAdjust="spacing" textLength="141" x="508.5" y="136.291">NoInternetException</text><line style="stroke:#181818;stroke-width:0.5;" x1="480.5" x2="651.5" y1="147" y2="147"/><line style="stroke:#181818;stroke-width:0.5;" x1="480.5" x2="651.5" y1="155" y2="155"/></g><!--class ServerDownException--><g id="elem_ServerDownException"><rect codeLine="10" fill="#F1F1F1" height="48" id="ServerDownException" rx="2.5" ry="2.5" style="stroke:#181818;stroke-width:0.5;" width="182" x="688" y="115"/><ellipse cx="703" cy="131" fill="#ADD1B2" rx="11" ry="11" style="stroke:#181818;stroke-width:1.0;"/><path d="M705.9731,136.6431 Q705.3921,136.9419 704.7529,137.0913 Q704.1138,137.2407 703.4082,137.2407 Q700.9014,137.2407 699.5815,135.5889 Q698.2617,133.937 698.2617,130.8159 Q698.2617,127.6865 699.5815,126.0347 Q700.9014,124.3828 703.4082,124.3828 Q704.1138,124.3828 704.7612,124.5322 Q705.4087,124.6816 705.9731,124.9805 L705.9731,127.7031 Q705.3423,127.1221 704.7488,126.8523 Q704.1553,126.5825 703.5244,126.5825 Q702.1797,126.5825 701.4949,127.6492 Q700.8101,128.7158 700.8101,130.8159 Q700.8101,132.9077 701.4949,133.9744 Q702.1797,135.041 703.5244,135.041 Q704.1553,135.041 704.7488,134.7712 Q705.3423,134.5015 705.9731,133.9204 Z " fill="#000000"/><text fill="#000000" font-family="sans-serif" font-size="14" lengthAdjust="spacing" textLength="150" x="717" y="136.291">ServerDownException</text><line style="stroke:#181818;stroke-width:0.5;" x1="689" x2="869" y1="147" y2="147"/><line style="stroke:#181818;stroke-width:0.5;" x1="689" x2="869" y1="155" y2="155"/></g><!--class ProxyErrorException--><g id="elem_ProxyErrorException"><rect codeLine="13" fill="#F1F1F1" height="48" id="ProxyErrorException" rx="2.5" ry="2.5" style="stroke:#181818;stroke-width:0.5;" width="174" x="7" y="223"/><ellipse cx="22" cy="239" fill="#ADD1B2" rx="11" ry="11" style="stroke:#181818;stroke-width:1.0;"/><path d="M24.9731,244.6431 Q24.3921,244.9419 23.7529,245.0913 Q23.1138,245.2407 22.4082,245.2407 Q19.9014,245.2407 18.5815,243.5889 Q17.2617,241.937 17.2617,238.8159 Q17.2617,235.6865 18.5815,234.0347 Q19.9014,232.3828 22.4082,232.3828 Q23.1138,232.3828 23.7612,232.5322 Q24.4087,232.6816 24.9731,232.9805 L24.9731,235.7031 Q24.3423,235.1221 23.7488,234.8523 Q23.1553,234.5825 22.5244,234.5825 Q21.1797,234.5825 20.4949,235.6492 Q19.8101,236.7158 19.8101,238.8159 Q19.8101,240.9077 20.4949,241.9744 Q21.1797,243.041 22.5244,243.041 Q23.1553,243.041 23.7488,242.7712 Q24.3423,242.5015 24.9731,241.9204 Z " fill="#000000"/><text fill="#000000" font-family="sans-serif" font-size="14" lengthAdjust="spacing" textLength="142" x="36" y="244.291">ProxyErrorException</text><line style="stroke:#181818;stroke-width:0.5;" x1="8" x2="180" y1="255" y2="255"/><line style="stroke:#181818;stroke-width:0.5;" x1="8" x2="180" y1="263" y2="263"/></g><!--class DNSLookupFailedException--><g id="elem_DNSLookupFailedException"><rect codeLine="16" fill="#F1F1F1" height="48" id="DNSLookupFailedException" rx="2.5" ry="2.5" style="stroke:#181818;stroke-width:0.5;" width="220" x="216" y="223"/><ellipse cx="231" cy="239" fill="#ADD1B2" rx="11" ry="11" style="stroke:#181818;stroke-width:1.0;"/><path d="M233.9731,244.6431 Q233.3921,244.9419 232.7529,245.0913 Q232.1138,245.2407 231.4082,245.2407 Q228.9014,245.2407 227.5815,243.5889 Q226.2617,241.937 226.2617,238.8159 Q226.2617,235.6865 227.5815,234.0347 Q228.9014,232.3828 231.4082,232.3828 Q232.1138,232.3828 232.7612,232.5322 Q233.4087,232.6816 233.9731,232.9805 L233.9731,235.7031 Q233.3423,235.1221 232.7488,234.8523 Q232.1553,234.5825 231.5244,234.5825 Q230.1797,234.5825 229.4949,235.6492 Q228.8101,236.7158 228.8101,238.8159 Q228.8101,240.9077 229.4949,241.9744 Q230.1797,243.041 231.5244,243.041 Q232.1553,243.041 232.7488,242.7712 Q233.3423,242.5015 233.9731,241.9204 Z " fill="#000000"/><text fill="#000000" font-family="sans-serif" font-size="14" lengthAdjust="spacing" textLength="188" x="245" y="244.291">DNSLookupFailedException</text><line style="stroke:#181818;stroke-width:0.5;" x1="217" x2="435" y1="255" y2="255"/><line style="stroke:#181818;stroke-width:0.5;" x1="217" x2="435" y1="263" y2="263"/></g><!--class ConnectionRefusedException--><g id="elem_ConnectionRefusedException"><rect codeLine="19" fill="#F1F1F1" height="48" id="ConnectionRefusedException" rx="2.5" ry="2.5" style="stroke:#181818;stroke-width:0.5;" width="234" x="471" y="223"/><ellipse cx="486" cy="239" fill="#ADD1B2" rx="11" ry="11" style="stroke:#181818;stroke-width:1.0;"/><path d="M488.9731,244.6431 Q488.3921,244.9419 487.7529,245.0913 Q487.1138,245.2407 486.4082,245.2407 Q483.9014,245.2407 482.5815,243.5889 Q481.2617,241.937 481.2617,238.8159 Q481.2617,235.6865 482.5815,234.0347 Q483.9014,232.3828 486.4082,232.3828 Q487.1138,232.3828 487.7612,232.5322 Q488.4087,232.6816 488.9731,232.9805 L488.9731,235.7031 Q488.3423,235.1221 487.7488,234.8523 Q487.1553,234.5825 486.5244,234.5825 Q485.1797,234.5825 484.4949,235.6492 Q483.8101,236.7158 483.8101,238.8159 Q483.8101,240.9077 484.4949,241.9744 Q485.1797,243.041 486.5244,243.041 Q487.1553,243.041 487.7488,242.7712 Q488.3423,242.5015 488.9731,241.9204 Z " fill="#000000"/><text fill="#000000" font-family="sans-serif" font-size="14" lengthAdjust="spacing" textLength="202" x="500" y="244.291">ConnectionRefusedException</text><line style="stroke:#181818;stroke-width:0.5;" x1="472" x2="704" y1="255" y2="255"/><line style="stroke:#181818;stroke-width:0.5;" x1="472" x2="704" y1="263" y2="263"/></g><!--reverse link NetworkException to ConnectionTimeoutException--><g id="link_NetworkException_ConnectionTimeoutException"><path d="M496.5648,62.6629 C456.6748,80.2829 418.69,97.06 378.83,114.67 " fill="none" id="NetworkException-backto-ConnectionTimeoutException" style="stroke:#181818;stroke-width:1.0;"/><polygon fill="none" points="513.03,55.39,494.1404,57.1745,498.9891,68.1514,513.03,55.39" style="stroke:#181818;stroke-width:1.0;"/></g><!--reverse link NetworkException to NoInternetException--><g id="link_NetworkException_NoInternetException"><path d="M566,73.26 C566,90.94 566,97.13 566,114.79 " fill="none" id="NetworkException-backto-NoInternetException" style="stroke:#181818;stroke-width:1.0;"/><polygon fill="none" points="566,55.26,560,73.26,572,73.26,566,55.26" style="stroke:#181818;stroke-width:1.0;"/></g><!--reverse link NetworkException to ServerDownException--><g id="link_NetworkException_ServerDownException"><path d="M629.1242,63.4107 C664.5242,81.0307 696.74,97.06 732.11,114.67 " fill="none" id="NetworkException-backto-ServerDownException" style="stroke:#181818;stroke-width:1.0;"/><polygon fill="none" points="613.01,55.39,626.4507,68.7821,631.7978,58.0393,613.01,55.39" style="stroke:#181818;stroke-width:1.0;"/></g><!--reverse link ConnectionTimeoutException to ProxyErrorException--><g id="link_ConnectionTimeoutException_ProxyErrorException"><path d="M258.4283,170.8711 C219.8683,188.4911 183.6,205.06 145.07,222.67 " fill="none" id="ConnectionTimeoutException-backto-ProxyErrorException" style="stroke:#181818;stroke-width:1.0;"/><polygon fill="none" points="274.8,163.39,255.9346,165.4138,260.922,176.3283,274.8,163.39" style="stroke:#181818;stroke-width:1.0;"/></g><!--reverse link ConnectionTimeoutException to DNSLookupFailedException--><g id="link_ConnectionTimeoutException_DNSLookupFailedException"><path d="M326,181.26 C326,198.94 326,205.13 326,222.79 " fill="none" id="ConnectionTimeoutException-backto-DNSLookupFailedException" style="stroke:#181818;stroke-width:1.0;"/><polygon fill="none" points="326,163.26,320,181.26,332,181.26,326,163.26" style="stroke:#181818;stroke-width:1.0;"/></g><!--reverse link ConnectionTimeoutException to ConnectionRefusedException--><g id="link_ConnectionTimeoutException_ConnectionRefusedException"><path d="M400.506,170.141 C444.056,187.761 486.81,205.06 530.33,222.67 " fill="none" id="ConnectionTimeoutException-backto-ConnectionRefusedException" style="stroke:#181818;stroke-width:1.0;"/><polygon fill="none" points="383.82,163.39,398.2557,175.703,402.7564,164.579,383.82,163.39" style="stroke:#181818;stroke-width:1.0;"/></g><!--SRC=[dO_12i8m44Jl-OhUF6dlNcq5GOgq_a18LmrDTiDcOolYluk2L124zZZCl0Upk8Y4kCxpu3HAycvboEV6wHYNhTLdrbufzSxPXX31Y2KyMW-Kf1mCX5VEO130DcOLI4_SZSLTFJvuHJiKO8I9N0Dy1IwensdSWMcubSp4lzoVAr-6echsH5qAMsqTj7Cruwg6KuepH4y0]--></g></svg>