<?xml version="1.0" encoding="us-ascii" standalone="no"?><svg xmlns="http://www.w3.org/2000/svg" xmlns:xlink="http://www.w3.org/1999/xlink" contentStyleType="text/css" height="278px" preserveAspectRatio="none" style="width:928px;height:278px;background:#FFFFFF;" version="1.1" viewBox="0 0 928 278" width="928px" zoomAndPan="magnify"><defs/><g><!--class CardDeclinedException--><g id="elem_CardDeclinedException"><rect codeLine="4" fill="#F1F1F1" height="48" id="CardDeclinedException" rx="2.5" ry="2.5" style="stroke:#181818;stroke-width:0.5;" width="192" x="225" y="115"/><ellipse cx="240" cy="131" fill="#ADD1B2" rx="11" ry="11" style="stroke:#181818;stroke-width:1.0;"/><path d="M242.9731,136.6431 Q242.3921,136.9419 241.7529,137.0913 Q241.1138,137.2407 240.4082,137.2407 Q237.9014,137.2407 236.5815,135.5889 Q235.2617,133.937 235.2617,130.8159 Q235.2617,127.6865 236.5815,126.0347 Q237.9014,124.3828 240.4082,124.3828 Q241.1138,124.3828 241.7612,124.5322 Q242.4087,124.6816 242.9731,124.9805 L242.9731,127.7031 Q242.3423,127.1221 241.7488,126.8523 Q241.1553,126.5825 240.5244,126.5825 Q239.1797,126.5825 238.4949,127.6492 Q237.8101,128.7158 237.8101,130.8159 Q237.8101,132.9077 238.4949,133.9744 Q239.1797,135.041 240.5244,135.041 Q241.1553,135.041 241.7488,134.7712 Q242.3423,134.5015 242.9731,133.9204 Z " fill="#000000"/><text fill="#000000" font-family="sans-serif" font-size="14" lengthAdjust="spacing" textLength="160" x="254" y="136.291">CardDeclinedException</text><line style="stroke:#181818;stroke-width:0.5;" x1="226" x2="416" y1="147" y2="147"/><line style="stroke:#181818;stroke-width:0.5;" x1="226" x2="416" y1="155" y2="155"/></g><!--class PaymentFailedException--><g id="elem_PaymentFailedException"><rect fill="#F1F1F1" height="48" id="PaymentFailedException" rx="2.5" ry="2.5" style="stroke:#181818;stroke-width:0.5;" width="199" x="461.5" y="7"/><ellipse cx="476.5" cy="23" fill="#ADD1B2" rx="11" ry="11" style="stroke:#181818;stroke-width:1.0;"/><path d="M479.4731,28.6431 Q478.8921,28.9419 478.2529,29.0913 Q477.6138,29.2407 476.9082,29.2407 Q474.4014,29.2407 473.0815,27.5889 Q471.7617,25.937 471.7617,22.8159 Q471.7617,19.6865 473.0815,18.0347 Q474.4014,16.3828 476.9082,16.3828 Q477.6138,16.3828 478.2612,16.5322 Q478.9087,16.6816 479.4731,16.9805 L479.4731,19.7031 Q478.8423,19.1221 478.2488,18.8523 Q477.6553,18.5825 477.0244,18.5825 Q475.6797,18.5825 474.9949,19.6492 Q474.3101,20.7158 474.3101,22.8159 Q474.3101,24.9077 474.9949,25.9744 Q475.6797,27.041 477.0244,27.041 Q477.6553,27.041 478.2488,26.7712 Q478.8423,26.5015 479.4731,25.9204 Z " fill="#000000"/><text fill="#000000" font-family="sans-serif" font-size="14" lengthAdjust="spacing" textLength="167" x="490.5" y="28.291">PaymentFailedException</text><line style="stroke:#181818;stroke-width:0.5;" x1="462.5" x2="659.5" y1="39" y2="39"/><line style="stroke:#181818;stroke-width:0.5;" x1="462.5" x2="659.5" y1="47" y2="47"/></g><!--class InsufficientFundsException--><g id="elem_InsufficientFundsException"><rect codeLine="7" fill="#F1F1F1" height="48" id="InsufficientFundsException" rx="2.5" ry="2.5" style="stroke:#181818;stroke-width:0.5;" width="218" x="452" y="115"/><ellipse cx="467" cy="131" fill="#ADD1B2" rx="11" ry="11" style="stroke:#181818;stroke-width:1.0;"/><path d="M469.9731,136.6431 Q469.3921,136.9419 468.7529,137.0913 Q468.1138,137.2407 467.4082,137.2407 Q464.9014,137.2407 463.5815,135.5889 Q462.2617,133.937 462.2617,130.8159 Q462.2617,127.6865 463.5815,126.0347 Q464.9014,124.3828 467.4082,124.3828 Q468.1138,124.3828 468.7612,124.5322 Q469.4087,124.6816 469.9731,124.9805 L469.9731,127.7031 Q469.3423,127.1221 468.7488,126.8523 Q468.1553,126.5825 467.5244,126.5825 Q466.1797,126.5825 465.4949,127.6492 Q464.8101,128.7158 464.8101,130.8159 Q464.8101,132.9077 465.4949,133.9744 Q466.1797,135.041 467.5244,135.041 Q468.1553,135.041 468.7488,134.7712 Q469.3423,134.5015 469.9731,133.9204 Z " fill="#000000"/><text fill="#000000" font-family="sans-serif" font-size="14" lengthAdjust="spacing" textLength="186" x="481" y="136.291">InsufficientFundsException</text><line style="stroke:#181818;stroke-width:0.5;" x1="453" x2="669" y1="147" y2="147"/><line style="stroke:#181818;stroke-width:0.5;" x1="453" x2="669" y1="155" y2="155"/></g><!--class TransactionErrorException--><g id="elem_TransactionErrorException"><rect codeLine="10" fill="#F1F1F1" height="48" id="TransactionErrorException" rx="2.5" ry="2.5" style="stroke:#181818;stroke-width:0.5;" width="216" x="705" y="115"/><ellipse cx="720" cy="131" fill="#ADD1B2" rx="11" ry="11" style="stroke:#181818;stroke-width:1.0;"/><path d="M722.9731,136.6431 Q722.3921,136.9419 721.7529,137.0913 Q721.1138,137.2407 720.4082,137.2407 Q717.9014,137.2407 716.5815,135.5889 Q715.2617,133.937 715.2617,130.8159 Q715.2617,127.6865 716.5815,126.0347 Q717.9014,124.3828 720.4082,124.3828 Q721.1138,124.3828 721.7612,124.5322 Q722.4087,124.6816 722.9731,124.9805 L722.9731,127.7031 Q722.3423,127.1221 721.7488,126.8523 Q721.1553,126.5825 720.5244,126.5825 Q719.1797,126.5825 718.4949,127.6492 Q717.8101,128.7158 717.8101,130.8159 Q717.8101,132.9077 718.4949,133.9744 Q719.1797,135.041 720.5244,135.041 Q721.1553,135.041 721.7488,134.7712 Q722.3423,134.5015 722.9731,133.9204 Z " fill="#000000"/><text fill="#000000" font-family="sans-serif" font-size="14" lengthAdjust="spacing" textLength="184" x="734" y="136.291">TransactionErrorException</text><line style="stroke:#181818;stroke-width:0.5;" x1="706" x2="920" y1="147" y2="147"/><line style="stroke:#181818;stroke-width:0.5;" x1="706" x2="920" y1="155" y2="155"/></g><!--class CardExpiredException--><g id="elem_CardExpiredException"><rect codeLine="13" fill="#F1F1F1" height="48" id="CardExpiredException" rx="2.5" ry="2.5" style="stroke:#181818;stroke-width:0.5;" width="186" x="7" y="223"/><ellipse cx="22" cy="239" fill="#ADD1B2" rx="11" ry="11" style="stroke:#181818;stroke-width:1.0;"/><path d="M24.9731,244.6431 Q24.3921,244.9419 23.7529,245.0913 Q23.1138,245.2407 22.4082,245.2407 Q19.9014,245.2407 18.5815,243.5889 Q17.2617,241.937 17.2617,238.8159 Q17.2617,235.6865 18.5815,234.0347 Q19.9014,232.3828 22.4082,232.3828 Q23.1138,232.3828 23.7612,232.5322 Q24.4087,232.6816 24.9731,232.9805 L24.9731,235.7031 Q24.3423,235.1221 23.7488,234.8523 Q23.1553,234.5825 22.5244,234.5825 Q21.1797,234.5825 20.4949,235.6492 Q19.8101,236.7158 19.8101,238.8159 Q19.8101,240.9077 20.4949,241.9744 Q21.1797,243.041 22.5244,243.041 Q23.1553,243.041 23.7488,242.7712 Q24.3423,242.5015 24.9731,241.9204 Z " fill="#000000"/><text fill="#000000" font-family="sans-serif" font-size="14" lengthAdjust="spacing" textLength="154" x="36" y="244.291">CardExpiredException</text><line style="stroke:#181818;stroke-width:0.5;" x1="8" x2="192" y1="255" y2="255"/><line style="stroke:#181818;stroke-width:0.5;" x1="8" x2="192" y1="263" y2="263"/></g><!--class CardBlockedException--><g id="elem_CardBlockedException"><rect codeLine="16" fill="#F1F1F1" height="48" id="CardBlockedException" rx="2.5" ry="2.5" style="stroke:#181818;stroke-width:0.5;" width="186" x="228" y="223"/><ellipse cx="243" cy="239" fill="#ADD1B2" rx="11" ry="11" style="stroke:#181818;stroke-width:1.0;"/><path d="M245.9731,244.6431 Q245.3921,244.9419 244.7529,245.0913 Q244.1138,245.2407 243.4082,245.2407 Q240.9014,245.2407 239.5815,243.5889 Q238.2617,241.937 238.2617,238.8159 Q238.2617,235.6865 239.5815,234.0347 Q240.9014,232.3828 243.4082,232.3828 Q244.1138,232.3828 244.7612,232.5322 Q245.4087,232.6816 245.9731,232.9805 L245.9731,235.7031 Q245.3423,235.1221 244.7488,234.8523 Q244.1553,234.5825 243.5244,234.5825 Q242.1797,234.5825 241.4949,235.6492 Q240.8101,236.7158 240.8101,238.8159 Q240.8101,240.9077 241.4949,241.9744 Q242.1797,243.041 243.5244,243.041 Q244.1553,243.041 244.7488,242.7712 Q245.3423,242.5015 245.9731,241.9204 Z " fill="#000000"/><text fill="#000000" font-family="sans-serif" font-size="14" lengthAdjust="spacing" textLength="154" x="257" y="244.291">CardBlockedException</text><line style="stroke:#181818;stroke-width:0.5;" x1="229" x2="413" y1="255" y2="255"/><line style="stroke:#181818;stroke-width:0.5;" x1="229" x2="413" y1="263" y2="263"/></g><!--class CardLimitExceededException--><g id="elem_CardLimitExceededException"><rect codeLine="19" fill="#F1F1F1" height="48" id="CardLimitExceededException" rx="2.5" ry="2.5" style="stroke:#181818;stroke-width:0.5;" width="232" x="449" y="223"/><ellipse cx="464" cy="239" fill="#ADD1B2" rx="11" ry="11" style="stroke:#181818;stroke-width:1.0;"/><path d="M466.9731,244.6431 Q466.3921,244.9419 465.7529,245.0913 Q465.1138,245.2407 464.4082,245.2407 Q461.9014,245.2407 460.5815,243.5889 Q459.2617,241.937 459.2617,238.8159 Q459.2617,235.6865 460.5815,234.0347 Q461.9014,232.3828 464.4082,232.3828 Q465.1138,232.3828 465.7612,232.5322 Q466.4087,232.6816 466.9731,232.9805 L466.9731,235.7031 Q466.3423,235.1221 465.7488,234.8523 Q465.1553,234.5825 464.5244,234.5825 Q463.1797,234.5825 462.4949,235.6492 Q461.8101,236.7158 461.8101,238.8159 Q461.8101,240.9077 462.4949,241.9744 Q463.1797,243.041 464.5244,243.041 Q465.1553,243.041 465.7488,242.7712 Q466.3423,242.5015 466.9731,241.9204 Z " fill="#000000"/><text fill="#000000" font-family="sans-serif" font-size="14" lengthAdjust="spacing" textLength="200" x="478" y="244.291">CardLimitExceededException</text><line style="stroke:#181818;stroke-width:0.5;" x1="450" x2="680" y1="255" y2="255"/><line style="stroke:#181818;stroke-width:0.5;" x1="450" x2="680" y1="263" y2="263"/></g><!--reverse link PaymentFailedException to CardDeclinedException--><g id="link_PaymentFailedException_CardDeclinedException"><path d="M491.5648,62.6629 C451.6748,80.2829 413.69,97.06 373.83,114.67 " fill="none" id="PaymentFailedException-backto-CardDeclinedException" style="stroke:#181818;stroke-width:1.0;"/><polygon fill="none" points="508.03,55.39,489.1404,57.1745,493.9891,68.1514,508.03,55.39" style="stroke:#181818;stroke-width:1.0;"/></g><!--reverse link PaymentFailedException to InsufficientFundsException--><g id="link_PaymentFailedException_InsufficientFundsException"><path d="M561,73.26 C561,90.94 561,97.13 561,114.79 " fill="none" id="PaymentFailedException-backto-InsufficientFundsException" style="stroke:#181818;stroke-width:1.0;"/><polygon fill="none" points="561,55.26,555,73.26,567,73.26,561,55.26" style="stroke:#181818;stroke-width:1.0;"/></g><!--reverse link PaymentFailedException to TransactionErrorException--><g id="link_PaymentFailedException_TransactionErrorException"><path d="M633.202,62.369 C675.092,79.989 715.67,97.06 757.53,114.67 " fill="none" id="PaymentFailedException-backto-TransactionErrorException" style="stroke:#181818;stroke-width:1.0;"/><polygon fill="none" points="616.61,55.39,630.8756,67.8997,635.5283,56.8383,616.61,55.39" style="stroke:#181818;stroke-width:1.0;"/></g><!--reverse link CardDeclinedException to CardExpiredException--><g id="link_CardDeclinedException_CardExpiredException"><path d="M256,171.1737 C219.26,188.7937 185.35,205.06 148.65,222.67 " fill="none" id="CardDeclinedException-backto-CardExpiredException" style="stroke:#181818;stroke-width:1.0;"/><polygon fill="none" points="272.23,163.39,253.4054,165.7637,258.5945,176.5837,272.23,163.39" style="stroke:#181818;stroke-width:1.0;"/></g><!--reverse link CardDeclinedException to CardBlockedException--><g id="link_CardDeclinedException_CardBlockedException"><path d="M321,181.26 C321,198.94 321,205.13 321,222.79 " fill="none" id="CardDeclinedException-backto-CardBlockedException" style="stroke:#181818;stroke-width:1.0;"/><polygon fill="none" points="321,163.26,315,181.26,327,181.26,321,163.26" style="stroke:#181818;stroke-width:1.0;"/></g><!--reverse link CardDeclinedException to CardLimitExceededException--><g id="link_CardDeclinedException_CardLimitExceededException"><path d="M391.3595,170.562 C431.9195,188.182 470.76,205.06 511.29,222.67 " fill="none" id="CardDeclinedException-backto-CardLimitExceededException" style="stroke:#181818;stroke-width:1.0;"/><polygon fill="none" points="374.85,163.39,388.9688,176.0652,393.7501,165.0589,374.85,163.39" style="stroke:#181818;stroke-width:1.0;"/></g><!--SRC=[dOyn2W9134NxESLsLhgzfRg2O67X1K8cgy6Pp939mefuTnr14B5no-J_z-7DpcQvBDis1n0RObXWYYq6A6Nk6KuAqJdtkfirgDyG1XRotOYKZPCqD1g9Byq1hf74ji3XCxwv-vlVIHdwdf5hRNWoKqQE2b80wxjJJJfbeufqOsRzvV7RyejUXOINoVIU8rjDoV-vyG00]--></g></svg>